<svg xmlns="http://www.w3.org/2000/svg" xmlns:xlink="http://www.w3.org/1999/xlink" width="118" height="118" viewBox="0 0 118 118">
  <defs>
    <filter id="Elipse_12115" x="0" y="0" width="118" height="118" filterUnits="userSpaceOnUse">
      <feOffset dy="3" input="SourceAlpha"/>
      <feGaussianBlur stdDeviation="3" result="blur"/>
      <feFlood flood-opacity="0.161"/>
      <feComposite operator="in" in2="blur"/>
      <feComposite in="SourceGraphic"/>
    </filter>
  </defs>
  <g id="Grupo_1193548" data-name="Grupo 1193548" transform="translate(-794.782 -1523.778)">
    <g id="Grupo_1189590" data-name="Grupo 1189590" transform="translate(-4.999 -1019.222)">
      <g transform="matrix(1, 0, 0, 1, 799.78, 2543)" filter="url(#Elipse_12115)">
        <g id="Elipse_12115-2" data-name="Elipse 12115" transform="translate(9 6)" fill="#fbe0aa" stroke="#ab7c1f" stroke-width="2">
          <circle cx="50" cy="50" r="50" stroke="none"/>
          <circle cx="50" cy="50" r="49" fill="none"/>
        </g>
      </g>
    </g>
    <g id="territotorio" transform="translate(820.252 1547.778)">
      <path id="Trazado_1245604" data-name="Trazado 1245604" d="M18,15h4v4H18Z" fill="#268c56"/>
      <path id="Trazado_1245605" data-name="Trazado 1245605" d="M40,34h4v4H40Z" fill="#268c56"/>
      <path id="Trazado_1245606" data-name="Trazado 1245606" d="M46,34h4v4H46Z" fill="#116035"/>
      <path id="Trazado_1245607" data-name="Trazado 1245607" d="M28.975,57.7,27.44,59.06,28.976,57.7Z" fill="#33b575"/>
      <path id="Trazado_1245608" data-name="Trazado 1245608" d="M54.2,20.27l-4.62,3.46-1.94,1.45,2.08,3.46a2.017,2.017,0,0,1,.1,1.85l-5,11a2.008,2.008,0,0,1-.99,1l-8.74,3.97,1.51,2.01a2,2,0,0,1-.27,2.69l-6.22,5.53L28.976,57.7,35,62l9-8-3-4,11-5,5-11-3-5,8-6-1-6-6.566-1.876.536,3.216a1.987,1.987,0,0,1-.77,1.93Z" fill="#116035"/>
      <path id="Trazado_1245609" data-name="Trazado 1245609" d="M40,6,35,4,32,8H24L22.913,2,8,8l1,9H5L2,23l8,5,1.759.406L11.01,21.72a2.012,2.012,0,0,1,1.24-2.08l11.12-4.47,3.8-1.53a2.028,2.028,0,0,1,1.06-.11,1.73,1.73,0,0,1,.65.22,1.99,1.99,0,0,1,1,1.39l.79,4.36H36l2-2.67.4-.53a2.009,2.009,0,0,1,2.34-.66l5,2A2.01,2.01,0,0,1,47,19.5v3.49l2.578.739L54.2,20.27a1.987,1.987,0,0,0,.77-1.93l-.536-3.216L40,11Z" fill="#48d88d"/>
      <path id="Trazado_1245610" data-name="Trazado 1245610" d="M54.2,20.27l-4.622,3.459h0Z" fill="#48d88d"/>
      <path id="Trazado_1245611" data-name="Trazado 1245611" d="M36.6,48.47l-1.51-2.01,8.74-3.97a2.008,2.008,0,0,0,.99-1l5-11a2.017,2.017,0,0,0-.1-1.85l-2.08-3.46,1.938-1.451L47,22.99V19.5a2.01,2.01,0,0,0-1.26-1.86l-5-2a2.009,2.009,0,0,0-2.34.66l-.4.53L36,19.5H30.67l-.79-4.36a1.99,1.99,0,0,0-1-1.39,1.73,1.73,0,0,0-.65-.22,2.028,2.028,0,0,0-1.06.11l-3.8,1.53L12.25,19.64a2.012,2.012,0,0,0-1.24,2.08l.749,6.686L23,31l1,5,4,2-1,6,5,7-4,6,.975.7,7.355-6.54a2,2,0,0,0,.27-2.69Z" fill="#33b575"/>
      <path id="Trazado_1245612" data-name="Trazado 1245612" d="M36.33,51.16,28.975,57.7h0L30.11,56.69Z" fill="#33b575"/>
      <path id="Trazado_1245613" data-name="Trazado 1245613" d="M49.58,23.73h0L47.64,25.18Z" fill="#33b575"/>
      <path id="Trazado_1245614" data-name="Trazado 1245614" d="M55.37,8c0,.042-.008.083-.008.125H58V2H52.66A7.972,7.972,0,0,1,55.37,8Z" fill="#f8dc32"/>
      <path id="Trazado_1245615" data-name="Trazado 1245615" d="M48,8.125h7.362c0-.042.008-.083.008-.125a7.972,7.972,0,0,0-2.71-6H48Z" fill="#d6ae03"/>
      <g id="Grupo_1193547" data-name="Grupo 1193547">
        <path id="Trazado_1245616" data-name="Trazado 1245616" d="M20,20a1,1,0,0,1-1-1V15a1,1,0,0,1,2,0v4A1,1,0,0,1,20,20Z" fill="#192b54"/>
        <path id="Trazado_1245617" data-name="Trazado 1245617" d="M42,39a1,1,0,0,1-1-1V34a1,1,0,0,1,2,0v4A1,1,0,0,1,42,39Z" fill="#192b54"/>
        <path id="Trazado_1245618" data-name="Trazado 1245618" d="M48,39a1,1,0,0,1-1-1V34a1,1,0,0,1,2,0v4A1,1,0,0,1,48,39Z" fill="#192b54"/>
        <path id="Trazado_1245619" data-name="Trazado 1245619" d="M55.636,38a1,1,0,0,1-.91-1.415l1.146-2.522-2.73-4.549A1,1,0,0,1,53.4,28.2l7.514-5.635-.8-4.777L39.725,11.961A1,1,0,0,1,39,11V6.677L35.34,5.213,32.8,8.6A1,1,0,0,1,32,9H24a1,1,0,0,1-.984-.822l-.868-4.792L9.078,8.645l.916,8.245A1,1,0,0,1,9,18H5.618L3.3,22.634l7.087,4.43,1.836.423a1,1,0,1,1-.449,1.949l-2-.461a1,1,0,0,1-.3-.126l-8-5a1,1,0,0,1-.365-1.3l3-6A1,1,0,0,1,5,16H7.883L7.006,8.11a1,1,0,0,1,.621-1.038l14.913-6a1,1,0,0,1,1.357.75L24.835,7H31.5l2.7-3.6a1,1,0,0,1,1.171-.329l5,2A1,1,0,0,1,41,6v4.246l20.275,5.793a1,1,0,0,1,.711.8l1,6a1,1,0,0,1-.386.964l-7.279,5.459,2.536,4.227a1,1,0,0,1,.053.929l-1.364,3a1,1,0,0,1-.91.582Z" fill="#192b54"/>
        <path id="Trazado_1245620" data-name="Trazado 1245620" d="M35,63a1,1,0,0,1-.581-.186l-7-5a1,1,0,0,1-.251-1.369l3.617-5.426-4.6-6.438a1,1,0,0,1-.172-.746l.878-5.271L23.552,36.9a1,1,0,0,1-.533-.7l-.874-4.367-6.371-1.47a1,1,0,1,1,.45-1.949l7,1.615a1,1,0,0,1,.756.778l.9,4.521L28.443,37.1a1,1,0,0,1,.539,1.059l-.932,5.591,4.759,6.663a1,1,0,0,1,.018,1.136l-3.463,5.194,5.563,3.974,7.716-6.859L40.2,50.6a1,1,0,0,1,.386-1.51l10.658-4.845,1.664-3.659a1,1,0,0,1,1.82.827l-1.818,4a1,1,0,0,1-.5.5L42.546,50.4l2.253,3a1,1,0,0,1-.135,1.348l-9,8A1,1,0,0,1,35,63Z" fill="#192b54"/>
        <path id="Trazado_1245621" data-name="Trazado 1245621" d="M48,20.5a1,1,0,0,1-1-1V2a1,1,0,1,1,2,0V19.5A1,1,0,0,1,48,20.5Z" fill="#192b54"/>
        <path id="Trazado_1245622" data-name="Trazado 1245622" d="M58,9H48a1,1,0,0,1-1-1V2a1,1,0,0,1,1-1h3a1,1,0,0,1,0,2H49V7h8V3H55a1,1,0,0,1,0-2h3a1,1,0,0,1,1,1V8A1,1,0,0,1,58,9Z" fill="#192b54"/>
        <path id="Trazado_1245623" data-name="Trazado 1245623" d="M32,23H31a1,1,0,0,1,0-2h1a1,1,0,0,1,0,2Z" fill="#192b54"/>
        <path id="Trazado_1245624" data-name="Trazado 1245624" d="M36,23H35a1,1,0,0,1,0-2h1a1,1,0,0,1,0,2Z" fill="#192b54"/>
      </g>
    </g>
  </g>
</svg>
