<svg xmlns="http://www.w3.org/2000/svg" xmlns:xlink="http://www.w3.org/1999/xlink" width="118" height="118" viewBox="0 0 118 118">
  <defs>
    <filter id="Elipse_12115" x="0" y="0" width="118" height="118" filterUnits="userSpaceOnUse">
      <feOffset dy="3" input="SourceAlpha"/>
      <feGaussianBlur stdDeviation="3" result="blur"/>
      <feFlood flood-opacity="0.161"/>
      <feComposite operator="in" in2="blur"/>
      <feComposite in="SourceGraphic"/>
    </filter>
  </defs>
  <g id="Grupo_1193557" data-name="Grupo 1193557" transform="translate(-1108.782 -1523.778)">
    <g id="Grupo_1189591" data-name="Grupo 1189591" transform="translate(309.001 -1019.222)">
      <g transform="matrix(1, 0, 0, 1, 799.78, 2543)" filter="url(#Elipse_12115)">
        <g id="Elipse_12115-2" data-name="Elipse 12115" transform="translate(9 6)" fill="#fbe0aa" stroke="#ab7c1f" stroke-width="2">
          <circle cx="50" cy="50" r="50" stroke="none"/>
          <circle cx="50" cy="50" r="49" fill="none"/>
        </g>
      </g>
    </g>
    <g id="comunidad12" transform="translate(1135.607 1580.62)">
      <g id="Grupo_1193552" data-name="Grupo 1193552" transform="translate(1.246 -5.399)">
        <g id="Grupo_1193549" data-name="Grupo 1193549" transform="translate(10.216)">
          <circle id="Elipse_12394" data-name="Elipse 12394" cx="4.983" cy="4.983" r="4.983" transform="translate(5.232)" fill="#ffd1c8"/>
          <path id="Trazado_1245625" data-name="Trazado 1245625" d="M112.431,335.287H92v-6.976a10.216,10.216,0,1,1,20.431,0Z" transform="translate(-92 -308.112)" fill="#fff"/>
        </g>
        <g id="Grupo_1193550" data-name="Grupo 1193550" transform="translate(30.647)">
          <circle id="Elipse_12395" data-name="Elipse 12395" cx="4.983" cy="4.983" r="4.983" transform="translate(5.232)" fill="#ffd1c8"/>
          <path id="Trazado_1245626" data-name="Trazado 1245626" d="M256,335.287h20.431v-6.976a10.216,10.216,0,1,0-20.431,0Z" transform="translate(-256 -308.112)" fill="#99ebfb"/>
        </g>
        <circle id="Elipse_12396" data-name="Elipse 12396" cx="4.983" cy="4.983" r="4.983" transform="translate(25.664 11.823)" fill="#ffd1c8"/>
        <circle id="Elipse_12397" data-name="Elipse 12397" cx="4.983" cy="4.983" r="4.983" transform="translate(46.095 11.823)" fill="#ffddd6"/>
        <path id="Trazado_1245627" data-name="Trazado 1245627" d="M194.431,424.086H174v-.872a10.216,10.216,0,0,1,20.431,0Z" transform="translate(-153.569 -391.192)" fill="#ffcf5c"/>
        <path id="Trazado_1245628" data-name="Trazado 1245628" d="M358.431,424.086H338v-.872a10.216,10.216,0,0,1,20.431,0Z" transform="translate(-297.138 -391.192)" fill="#ff9eb2"/>
        <g id="Grupo_1193551" data-name="Grupo 1193551" transform="translate(0 11.823)">
          <circle id="Elipse_12398" data-name="Elipse 12398" cx="4.983" cy="4.983" r="4.983" transform="translate(5.232)" fill="#ffddd6"/>
          <path id="Trazado_1245629" data-name="Trazado 1245629" d="M30.431,424.086H10v-.872a10.216,10.216,0,0,1,20.431,0Z" transform="translate(-10 -403.015)" fill="#6ae6a3"/>
        </g>
      </g>
      <g id="Grupo_1193555" data-name="Grupo 1193555" transform="translate(6.047 -40.032)">
        <g id="Grupo_1193553" data-name="Grupo 1193553" transform="translate(20.221 6.233)">
          <path id="Trazado_1245630" data-name="Trazado 1245630" d="M235.421,10.66a19.505,19.505,0,0,1-5.053,18.851,19.817,19.817,0,0,1-18.851,5.053,19.519,19.519,0,0,1,23.9-23.9Z" transform="translate(-210.855 -9.998)" fill="#6ae6a3"/>
        </g>
        <g id="Grupo_1193554" data-name="Grupo 1193554">
          <ellipse id="Elipse_12399" data-name="Elipse 12399" cx="9.757" cy="16.902" rx="9.757" ry="16.902" transform="translate(0 13.796) rotate(-45)" fill="#daf092"/>
        </g>
      </g>
      <g id="Grupo_1193556" data-name="Grupo 1193556" transform="translate(0 -35.044)">
        <path id="Trazado_1245631" data-name="Trazado 1245631" d="M56.557,250.577a6.226,6.226,0,0,0-7.195-10.043,11.417,11.417,0,0,0-3.018-1.783,6.229,6.229,0,1,0-8.471,0,11.4,11.4,0,0,0-3.018,1.782,6.221,6.221,0,0,0-5.924,0,11.4,11.4,0,0,0-3.018-1.782,6.229,6.229,0,1,0-8.471,0,11.4,11.4,0,0,0-3.019,1.782,6.226,6.226,0,0,0-7.194,10.043A11.48,11.48,0,0,0,0,261.229v.872a1.246,1.246,0,0,0,1.246,1.246H62.539a1.246,1.246,0,0,0,1.246-1.246v-.872a11.48,11.48,0,0,0-7.229-10.651Zm-20.431,0a6.213,6.213,0,0,0,.671-8.4,8.965,8.965,0,0,1,10.624,0,6.213,6.213,0,0,0,.671,8.4,11.531,11.531,0,0,0-5.983,5.458A11.531,11.531,0,0,0,36.125,250.577Zm-20.431,0a6.213,6.213,0,0,0,.671-8.4,8.967,8.967,0,0,1,10.624,0,6.213,6.213,0,0,0,.671,8.4,11.53,11.53,0,0,0-5.983,5.458,11.53,11.53,0,0,0-5.983-5.458Zm40.367-4.564a3.737,3.737,0,1,1-3.737-3.737A3.742,3.742,0,0,1,56.061,246.013Zm-13.953-15.56a3.737,3.737,0,1,1-3.737,3.737A3.742,3.742,0,0,1,42.108,230.453Zm-6.478,15.56a3.737,3.737,0,1,1-3.737-3.737A3.742,3.742,0,0,1,35.63,246.013Zm-13.953-15.56a3.737,3.737,0,1,1-3.737,3.737A3.742,3.742,0,0,1,21.677,230.453ZM11.461,242.276a3.737,3.737,0,1,1-3.737,3.737A3.742,3.742,0,0,1,11.461,242.276ZM2.5,260.855a8.97,8.97,0,0,1,17.924,0Zm20.431,0a8.97,8.97,0,0,1,17.924,0Zm20.431,0a8.97,8.97,0,0,1,17.924,0Z" transform="translate(0 -199.562)"/>
        <path id="Trazado_1245632" data-name="Trazado 1245632" d="M90.89,13.368a1.246,1.246,0,0,0,.87-1.532,18.359,18.359,0,0,1-.212-8.9,18.267,18.267,0,0,1,22.113,20.35L109.2,18.826V12.7a1.246,1.246,0,1,0-2.492,0v3.633l-3.466-3.466V8.343a1.246,1.246,0,0,0-2.492,0v2.034L98.276,7.906a1.246,1.246,0,1,0-1.762,1.762l2.471,2.471H96.951a1.246,1.246,0,1,0,0,2.492h4.526l3.466,3.466H101.31a1.246,1.246,0,1,0,0,2.492h6.125l4.467,4.467a18.206,18.206,0,0,1-14.637-4.41,1.246,1.246,0,0,0-1.653,1.865,20.681,20.681,0,0,0,13.738,5.218,20.96,20.96,0,0,0,5.389-.709,20.7,20.7,0,0,0,14.871-25.43,1.246,1.246,0,0,0-.882-.882,20.738,20.738,0,0,0-19.265,4.631A20.737,20.737,0,0,0,90.2.707a1.246,1.246,0,0,0-.882.882,20.85,20.85,0,0,0,.043,10.91,1.246,1.246,0,0,0,1.532.87ZM127.376,2.94a18.34,18.34,0,0,1-4.9,16.94,18.057,18.057,0,0,1-6.394,4.1,20.942,20.942,0,0,0,.248-3.395H117.8a1.246,1.246,0,0,0,0-2.492h-1.641q-.11-.855-.291-1.7l1.765-1.765h4.526a1.246,1.246,0,0,0,0-2.492h-2.034l2.471-2.471a1.246,1.246,0,0,0-1.762-1.762l-2.471,2.471V8.343a1.246,1.246,0,0,0-2.492,0v4.526l-.79.79a20.757,20.757,0,0,0-3.867-6.546A18.349,18.349,0,0,1,127.376,2.94Z" transform="translate(-77.571 -0.003)"/>
        <circle id="Elipse_12400" data-name="Elipse 12400" cx="1.246" cy="1.246" r="1.246" transform="translate(13.998 16.052)"/>
      </g>
    </g>
  </g>
</svg>
