<svg xmlns="http://www.w3.org/2000/svg" xmlns:xlink="http://www.w3.org/1999/xlink" width="118" height="118" viewBox="0 0 118 118">
  <defs>
    <filter id="Elipse_12115" x="0" y="0" width="118" height="118" filterUnits="userSpaceOnUse">
      <feOffset dy="3" input="SourceAlpha"/>
      <feGaussianBlur stdDeviation="3" result="blur"/>
      <feFlood flood-opacity="0.161"/>
      <feComposite operator="in" in2="blur"/>
      <feComposite in="SourceGraphic"/>
    </filter>
  </defs>
  <g id="Grupo_1193624" data-name="Grupo 1193624" transform="translate(-3362.542 10071)">
    <g id="Grupo_1189596" data-name="Grupo 1189596" transform="translate(2562.761 -12614)">
      <g transform="matrix(1, 0, 0, 1, 799.78, 2543)" filter="url(#Elipse_12115)">
        <g id="Elipse_12115-2" data-name="Elipse 12115" transform="translate(9 6)" fill="#fbe0aa" stroke="#ab7c1f" stroke-width="2">
          <circle cx="50" cy="50" r="50" stroke="none"/>
          <circle cx="50" cy="50" r="49" fill="none"/>
        </g>
      </g>
    </g>
    <g id="Layer_49" transform="translate(3388.582 -10050.678)">
      <g id="Grupo_1193623" data-name="Grupo 1193623" transform="translate(0 0)">
        <g id="Grupo_1193559" data-name="Grupo 1193559" transform="translate(0.638 8.573)">
          <path id="Trazado_1245633" data-name="Trazado 1245633" d="M32.93,62.04a.767.767,0,0,1-.656-1.164L37.2,52.748H36.037a.767.767,0,0,1-.656-1.164L39.9,44.126H38.348a.767.767,0,0,1-.656-1.164l1.1-1.81-4.246-6.206a3.137,3.137,0,0,0-5.276.152L21.739,47.593a3.491,3.491,0,0,1,2.234,1.577.674.674,0,0,0,.513.314,2.511,2.511,0,0,1,2.267,2.544,2.547,2.547,0,0,1-2.566,2.467H10.537a6.467,6.467,0,0,0-2.563,1.626L3.585,60.666A3.869,3.869,0,0,0,2.5,63.353v6.2H9.739V66.526a4.659,4.659,0,0,1,3.978-4.594h0a4.8,4.8,0,0,1,.67-.054H26.4a4.834,4.834,0,0,1,.67.054h0a4.38,4.38,0,0,1,1.541.509,4.66,4.66,0,0,1,2.437,4.085v1.066h0v1.964h9.721V62.039H32.93Z" transform="translate(-2.5 -33.581)" fill="#818182"/>
        </g>
        <g id="Grupo_1193560" data-name="Grupo 1193560" transform="translate(52.445 18.217)">
          <path id="Trazado_1245634" data-name="Trazado 1245634" d="M208.87,71.654,205.52,77.18a.614.614,0,0,0,.525.933h6.7a.614.614,0,0,0,.525-.933l-3.351-5.526A.614.614,0,0,0,208.87,71.654Z" transform="translate(-205.43 -71.358)" fill="#b2e26d"/>
        </g>
        <g id="Grupo_1193561" data-name="Grupo 1193561" transform="translate(48.105 31.878)">
          <path id="Trazado_1245635" data-name="Trazado 1245635" d="M204.952,131.379,201,124.868h-8.537l-3.948,6.511a.614.614,0,0,0,.525.933h15.382A.614.614,0,0,0,204.952,131.379Z" transform="translate(-188.43 -124.868)" fill="#57af12"/>
        </g>
        <g id="Grupo_1193562" data-name="Grupo 1193562" transform="translate(50.594 24.972)">
          <path id="Trazado_1245636" data-name="Trazado 1245636" d="M209.723,103.789,206.1,97.815h-4.21l-3.622,5.974a.614.614,0,0,0,.525.933h10.4A.614.614,0,0,0,209.723,103.789Z" transform="translate(-198.179 -97.815)" fill="#87d147"/>
        </g>
        <g id="Grupo_1193563" data-name="Grupo 1193563" transform="translate(35.718 10.687)">
          <path id="Trazado_1245637" data-name="Trazado 1245637" d="M144.205,42.229l-4.183,6.9a.767.767,0,0,0,.656,1.164h8.366a.767.767,0,0,0,.656-1.164l-4.183-6.9A.767.767,0,0,0,144.205,42.229Z" transform="translate(-139.91 -41.86)" fill="#b2e26d"/>
        </g>
        <g id="Grupo_1193564" data-name="Grupo 1193564" transform="translate(33.408 19.119)">
          <path id="Trazado_1245638" data-name="Trazado 1245638" d="M145.27,82.345l-4.522-7.457h-5.255l-4.522,7.457a.767.767,0,0,0,.656,1.164h12.988A.767.767,0,0,0,145.27,82.345Z" transform="translate(-130.859 -74.888)" fill="#87d147"/>
        </g>
        <g id="Grupo_1193565" data-name="Grupo 1193565" transform="translate(30.3 27.74)">
          <path id="Trazado_1245639" data-name="Trazado 1245639" d="M138.712,115.8l-4.327-7.136H123.728l-4.928,8.128a.767.767,0,0,0,.656,1.164h17.95Z" transform="translate(-118.688 -108.659)" fill="#57af12"/>
        </g>
        <g id="Grupo_1193567" data-name="Grupo 1193567" transform="translate(30.899 48.378)">
          <g id="Grupo_1193566" data-name="Grupo 1193566">
            <path id="Trazado_1245640" data-name="Trazado 1245640" d="M147.779,189.5a5.374,5.374,0,0,0-4.242,2.075l-.347.446a5.374,5.374,0,0,1-4.242,2.075h-7.194a5.374,5.374,0,0,0-4.3,2.15l-.6.806a5.373,5.373,0,0,1-4.116,2.144v4.943a1.7,1.7,0,0,1-1.7,1.7h32.8a1.017,1.017,0,0,0,1.017-1.017V189.5Z" transform="translate(-121.034 -189.5)" fill="#c18e6b"/>
          </g>
        </g>
        <g id="Grupo_1193568" data-name="Grupo 1193568" transform="translate(55.002 39.322)">
          <path id="Trazado_1245641" data-name="Trazado 1245641" d="M218.088,163.081h.176v-9.057h-2.818v9.752A5.374,5.374,0,0,1,218.088,163.081Z" transform="translate(-215.445 -154.024)" fill="#a57453"/>
        </g>
        <g id="Grupo_1193569" data-name="Grupo 1193569" transform="translate(38.91 37.032)">
          <path id="Trazado_1245642" data-name="Trazado 1245642" d="M155.122,161h.809V145.055h-3.518v16.676A5.371,5.371,0,0,1,155.122,161Z" transform="translate(-152.413 -145.055)" fill="#a57453"/>
        </g>
        <g id="Grupo_1193570" data-name="Grupo 1193570" transform="translate(42.428 44.549)">
          <path id="Trazado_1245643" data-name="Trazado 1245643" d="M166.193,174.5v8.425h6.385a5.374,5.374,0,0,0,4.242-2.075l.347-.446a5.368,5.368,0,0,1,1.6-1.38V174.5Z" transform="translate(-166.193 -174.5)" fill="#87d147"/>
        </g>
        <g id="Grupo_1193571" data-name="Grupo 1193571" transform="translate(29.189 44.549)">
          <path id="Trazado_1245644" data-name="Trazado 1245644" d="M114.335,174.5v11.36h1.71a1.7,1.7,0,0,1,1.7,1.7v.463a5.458,5.458,0,0,0,4.116-2.141l.6-.806a5.366,5.366,0,0,1,1.59-1.416V174.5Z" transform="translate(-114.335 -174.5)" fill="#87d147"/>
        </g>
        <g id="Grupo_1193572" data-name="Grupo 1193572" transform="translate(28.848 43.911)">
          <path id="Trazado_1245645" data-name="Trazado 1245645" d="M122.765,173.276h-9.127a.638.638,0,1,1,0-1.276h9.127a.638.638,0,0,1,0,1.276Z" transform="translate(-113 -172)"/>
        </g>
        <g id="Grupo_1193573" data-name="Grupo 1193573" transform="translate(0.638 44.549)">
          <path id="Trazado_1245646" data-name="Trazado 1245646" d="M2.5,174.5v19.151a1.017,1.017,0,0,0,1.017,1.017H8.029a1.7,1.7,0,0,1-1.7-1.7v-5.409a1.7,1.7,0,0,1,1.7-1.7h1.71V174.5Z" transform="translate(-2.5 -174.5)" fill="#87d147"/>
        </g>
        <g id="Grupo_1193574" data-name="Grupo 1193574" transform="translate(57.82 44.549)">
          <path id="Trazado_1245647" data-name="Trazado 1245647" d="M226.484,174.5v3.829h6.9v-2.812a1.017,1.017,0,0,0-1.017-1.017Z" transform="translate(-226.484 -174.5)" fill="#87d147"/>
        </g>
        <g id="Grupo_1193575" data-name="Grupo 1193575" transform="translate(7.878 36.87)">
          <path id="Trazado_1245648" data-name="Trazado 1245648" d="M48.506,172.269H34.52a3.673,3.673,0,0,1-3.663-3.663V149.07a4.662,4.662,0,0,1,4.648-4.648H47.52a4.662,4.662,0,0,1,4.648,4.648v19.536A3.674,3.674,0,0,1,48.506,172.269Z" transform="translate(-30.857 -144.422)" fill="#f5c84c"/>
        </g>
        <g id="Grupo_1193576" data-name="Grupo 1193576" transform="translate(4.468 55.909)">
          <path id="Trazado_1245649" data-name="Trazado 1245649" d="M20.91,224.142V219H19.2a1.7,1.7,0,0,0-1.7,1.7v5.409a1.7,1.7,0,0,0,1.7,1.7h5.373a3.674,3.674,0,0,1-3.663-3.663Z" transform="translate(-17.5 -218.996)" fill="#fc657e"/>
        </g>
        <g id="Grupo_1193577" data-name="Grupo 1193577" transform="translate(25.526 55.909)">
          <path id="Trazado_1245650" data-name="Trazado 1245650" d="M105.361,219h-1.71v5.146a3.673,3.673,0,0,1-3.663,3.663h5.373a1.7,1.7,0,0,0,1.7-1.7V220.7A1.7,1.7,0,0,0,105.361,219Z" transform="translate(-99.988 -218.996)" fill="#fc657e"/>
        </g>
        <g id="Grupo_1193578" data-name="Grupo 1193578" transform="translate(42.428 37.032)">
          <path id="Trazado_1245651" data-name="Trazado 1245651" d="M178.766,147.345h-6.282a.614.614,0,0,1-.525-.933l.823-1.357h-6.59v7.517h12.574v-5.227Z" transform="translate(-166.192 -145.055)" fill="#818182"/>
        </g>
        <g id="Grupo_1193579" data-name="Grupo 1193579" transform="translate(5.002 19.542)">
          <path id="Trazado_1245652" data-name="Trazado 1245652" d="M36.7,81.166a3.492,3.492,0,0,0-3.371-1.634.666.666,0,0,1-.662-.355,4.973,4.973,0,0,0-9.1.758.655.655,0,0,1-.68.435,3.067,3.067,0,0,0-3.3,3.018,3.12,3.12,0,0,0,3.127,3.1h14.2a2.547,2.547,0,0,0,2.566-2.467,2.511,2.511,0,0,0-2.267-2.544A.674.674,0,0,1,36.7,81.166Z" transform="translate(-19.591 -76.546)" fill="#9be5f9"/>
        </g>
        <g id="Grupo_1193580" data-name="Grupo 1193580" transform="translate(7.878 36.87)">
          <path id="Trazado_1245653" data-name="Trazado 1245653" d="M47.52,144.422H35.505a4.662,4.662,0,0,0-4.648,4.648v1.066A3.673,3.673,0,0,0,34.52,153.8H48.506a3.673,3.673,0,0,0,3.663-3.663V149.07A4.662,4.662,0,0,0,47.52,144.422Z" transform="translate(-30.857 -144.422)" fill="#fcdd86"/>
        </g>
        <g id="Grupo_1193581" data-name="Grupo 1193581" transform="translate(12.336 52.783)">
          <path id="Trazado_1245654" data-name="Trazado 1245654" d="M59.143,215.562H49.89a1.576,1.576,0,0,1-1.571-1.571v-5.667a1.576,1.576,0,0,1,1.571-1.571h9.253a1.576,1.576,0,0,1,1.571,1.571v5.667A1.576,1.576,0,0,1,59.143,215.562Z" transform="translate(-48.319 -206.753)" fill="#fc657e"/>
        </g>
        <g id="Grupo_1193582" data-name="Grupo 1193582" transform="translate(22.085 36.87)">
          <path id="Trazado_1245655" data-name="Trazado 1245655" d="M89.634,144.476a4.608,4.608,0,0,0-.67-.054H86.508V153.8h3.126v-9.323Z" transform="translate(-86.508 -144.422)" fill="#fc657e"/>
        </g>
        <g id="Grupo_1193583" data-name="Grupo 1193583" transform="translate(11.856 36.87)">
          <path id="Trazado_1245656" data-name="Trazado 1245656" d="M46.439,144.477V153.8h3.126v-9.377H47.109A4.574,4.574,0,0,0,46.439,144.477Z" transform="translate(-46.439 -144.423)" fill="#fc657e"/>
        </g>
        <g id="Grupo_1193584" data-name="Grupo 1193584" transform="translate(12.336 52.783)">
          <path id="Trazado_1245657" data-name="Trazado 1245657" d="M59.143,206.752H49.89a1.576,1.576,0,0,0-1.571,1.571v1.554h12.4v-1.554A1.576,1.576,0,0,0,59.143,206.752Z" transform="translate(-48.319 -206.752)" fill="#f98fa6"/>
        </g>
        <g id="Grupo_1193585" data-name="Grupo 1193585" transform="translate(23.102 8.573)">
          <path id="Trazado_1245658" data-name="Trazado 1245658" d="M103.221,42.962l1.1-1.81-4.246-6.206A3.137,3.137,0,0,0,94.8,35.1l-4.3,7.141h3.239a1.764,1.764,0,0,1,1.377.662l.983,1.229a1.764,1.764,0,0,0,1.377.662h1.911a1.764,1.764,0,0,1,1.344.621l2.292,2.7,2.416-3.985h-1.556A.767.767,0,0,1,103.221,42.962Z" transform="translate(-90.493 -33.581)" fill="#dae6f1"/>
        </g>
        <g id="Grupo_1193586" data-name="Grupo 1193586" transform="translate(34.015)">
          <path id="Trazado_1245659" data-name="Trazado 1245659" d="M136.5,1.576A1.99,1.99,0,0,1,134.917.019c0-.026-.077-.026-.077,0a1.99,1.99,0,0,1-1.583,1.557c-.026,0-.026.051,0,.077A1.99,1.99,0,0,1,134.84,3.21c0,.026.077.026.077,0A1.99,1.99,0,0,1,136.5,1.653c.026-.026.026-.077,0-.077Z" transform="translate(-133.238 0)" fill="#fc657e"/>
        </g>
        <g id="Grupo_1193587" data-name="Grupo 1193587" transform="translate(52.797 7.301)">
          <path id="Trazado_1245660" data-name="Trazado 1245660" d="M207.626,31.638h.587v.587a.806.806,0,0,0,.817.817.818.818,0,0,0,.817-.791v-.613h.587a.806.806,0,0,0,.817-.817A.818.818,0,0,0,210.46,30h-.613v-.587a.806.806,0,0,0-.817-.817.818.818,0,0,0-.817.791V30h-.587a.806.806,0,0,0-.817.817.791.791,0,0,0,.817.817h0Z" transform="translate(-206.808 -28.6)" fill="#70d6f9"/>
        </g>
        <g id="Grupo_1193588" data-name="Grupo 1193588" transform="translate(11.492 8.552)">
          <circle id="Elipse_12401" data-name="Elipse 12401" cx="0.868" cy="0.868" r="0.868" fill="#87d147"/>
        </g>
        <g id="Grupo_1193589" data-name="Grupo 1193589" transform="translate(60.508 15.062)">
          <circle id="Elipse_12402" data-name="Elipse 12402" cx="0.868" cy="0.868" r="0.868" fill="#f5c84c"/>
        </g>
        <g id="Grupo_1193590" data-name="Grupo 1193590" transform="translate(2.722 14.386)">
          <path id="Trazado_1245661" data-name="Trazado 1245661" d="M10.7,58.609a2.833,2.833,0,0,0,2.272-2.221c0-.051.1-.051.1,0a2.833,2.833,0,0,0,2.272,2.221c.051,0,.051.077,0,.1a2.833,2.833,0,0,0-2.272,2.221c0,.051-.1.051-.1,0A2.833,2.833,0,0,0,10.7,58.711C10.65,58.686,10.65,58.609,10.7,58.609Z" transform="translate(-10.663 -56.35)" fill="#f5c84c"/>
        </g>
        <g id="Grupo_1193591" data-name="Grupo 1193591" transform="translate(51.808 17.579)">
          <path id="Trazado_1245662" data-name="Trazado 1245662" d="M210.889,76.889h-6.7a1.252,1.252,0,0,1-1.071-1.9l3.351-5.526a1.252,1.252,0,0,1,2.142,0l3.351,5.526a1.252,1.252,0,0,1-1.071,1.9Zm-6.659-1.276h6.616l-3.308-5.455Zm2.783-5.82h0Z" transform="translate(-202.935 -68.858)"/>
        </g>
        <g id="Grupo_1193592" data-name="Grupo 1193592" transform="translate(47.468 31.487)">
          <path id="Trazado_1245663" data-name="Trazado 1245663" d="M202.568,131.809H187.186a1.252,1.252,0,0,1-1.071-1.9l3.8-6.263a.638.638,0,0,1,1.092.662l-3.776,6.227h15.3l-3.766-6.211a.638.638,0,0,1,1.092-.662l3.788,6.247a1.253,1.253,0,0,1-1.071,1.9Z" transform="translate(-185.934 -123.337)"/>
        </g>
        <g id="Grupo_1193593" data-name="Grupo 1193593" transform="translate(49.957 24.522)">
          <path id="Trazado_1245664" data-name="Trazado 1245664" d="M207.34,104.048h-10.4a1.253,1.253,0,0,1-1.071-1.9l3.508-5.785a.638.638,0,0,1,1.092.662l-3.486,5.749H207.3l-3.479-5.737a.638.638,0,0,1,1.092-.662l3.5,5.773a1.252,1.252,0,0,1-1.071,1.9Z" transform="translate(-195.684 -96.054)"/>
        </g>
        <g id="Grupo_1193594" data-name="Grupo 1193594" transform="translate(35.079 10.049)">
          <path id="Trazado_1245665" data-name="Trazado 1245665" d="M147.178,49.07h-8.366a1.4,1.4,0,0,1-1.2-2.133l4.183-6.9a1.4,1.4,0,0,1,1.2-.676h0a1.394,1.394,0,0,1,1.2.677l4.183,6.9a1.4,1.4,0,0,1-1.2,2.133Zm-4.293-8.37L138.7,47.6a.128.128,0,0,0,.11.2h8.366a.128.128,0,0,0,.11-.2L143.1,40.7a.128.128,0,0,0-.22,0Z" transform="translate(-137.405 -39.362)"/>
        </g>
        <g id="Grupo_1193595" data-name="Grupo 1193595" transform="translate(32.768 18.699)">
          <path id="Trazado_1245666" data-name="Trazado 1245666" d="M142.748,82.924H129.76a1.4,1.4,0,0,1-1.2-2.133l4.389-7.239a.638.638,0,0,1,1.092.662l-4.389,7.239a.128.128,0,0,0,.11.2h12.988a.128.128,0,0,0,.11-.2l-4.367-7.2a.638.638,0,0,1,1.092-.662l4.367,7.2a1.4,1.4,0,0,1-1.2,2.133Z" transform="translate(-128.352 -73.245)"/>
        </g>
        <g id="Grupo_1193596" data-name="Grupo 1193596" transform="translate(45.483 27.306)">
          <path id="Trazado_1245667" data-name="Trazado 1245667" d="M182.918,115.032a.638.638,0,0,1-.546-.307l-4.122-6.8a.638.638,0,0,1,1.092-.662l4.122,6.8a.639.639,0,0,1-.545.969Z" transform="translate(-178.157 -106.958)"/>
        </g>
        <g id="Grupo_1193597" data-name="Grupo 1193597" transform="translate(29.661 27.31)">
          <path id="Trazado_1245668" data-name="Trazado 1245668" d="M135.368,117.336H117.589a1.4,1.4,0,0,1-1.2-2.133l4.8-7.919a.638.638,0,0,1,1.092.662l-4.8,7.919a.128.128,0,0,0,.11.2h17.778a.638.638,0,1,1,0,1.276Z" transform="translate(-116.182 -106.976)"/>
        </g>
        <g id="Grupo_1193599" data-name="Grupo 1193599" transform="translate(30.261 47.74)">
          <g id="Grupo_1193598" data-name="Grupo 1193598">
            <path id="Trazado_1245669" data-name="Trazado 1245669" d="M151.972,204.615h-32.8a.638.638,0,1,1,0-1.276h32.8a.379.379,0,0,0,.379-.379V188.276h-6.434a4.705,4.705,0,0,0-3.739,1.828l-.346.446a5.974,5.974,0,0,1-4.746,2.321h-7.194a4.758,4.758,0,0,0-3.789,1.895l-.6.806a6,6,0,0,1-4.416,2.39.638.638,0,1,1-.083-1.274,4.729,4.729,0,0,0,3.478-1.882l.6-.806a6.041,6.041,0,0,1,4.81-2.405h7.194a4.705,4.705,0,0,0,3.739-1.828l.346-.446A5.974,5.974,0,0,1,145.916,187h7.073a.638.638,0,0,1,.638.638v15.322A1.657,1.657,0,0,1,151.972,204.615Z" transform="translate(-118.533 -186.999)"/>
          </g>
        </g>
        <g id="Grupo_1193600" data-name="Grupo 1193600" transform="translate(54.364 39.044)">
          <path id="Trazado_1245670" data-name="Trazado 1245670" d="M213.583,163.4a.638.638,0,0,1-.638-.638v-9.182a.638.638,0,0,1,1.276,0v9.182A.638.638,0,0,1,213.583,163.4Z" transform="translate(-212.945 -152.938)"/>
        </g>
        <g id="Grupo_1193601" data-name="Grupo 1193601" transform="translate(57.182 39.044)">
          <path id="Trazado_1245671" data-name="Trazado 1245671" d="M224.621,162.671a.638.638,0,0,1-.638-.638v-8.457a.638.638,0,0,1,1.276,0v8.457A.638.638,0,0,1,224.621,162.671Z" transform="translate(-223.983 -152.938)"/>
        </g>
        <g id="Grupo_1193602" data-name="Grupo 1193602" transform="translate(41.79 36.742)">
          <path id="Trazado_1245672" data-name="Trazado 1245672" d="M164.331,160.6a.638.638,0,0,1-.638-.638v-15.4a.638.638,0,0,1,1.276,0v15.4A.638.638,0,0,1,164.331,160.6Z" transform="translate(-163.693 -143.918)"/>
        </g>
        <g id="Grupo_1193603" data-name="Grupo 1193603" transform="translate(38.272 36.699)">
          <path id="Trazado_1245673" data-name="Trazado 1245673" d="M150.551,161.248a.638.638,0,0,1-.638-.638V144.388a.638.638,0,0,1,1.276,0V160.61A.638.638,0,0,1,150.551,161.248Z" transform="translate(-149.913 -143.75)"/>
        </g>
        <g id="Grupo_1193604" data-name="Grupo 1193604" transform="translate(0 43.911)">
          <path id="Trazado_1245674" data-name="Trazado 1245674" d="M6.167,193.445H1.655A1.657,1.657,0,0,1,0,191.789V172.638A.638.638,0,0,1,.638,172h7.01a.638.638,0,1,1,0,1.276H1.276v18.513a.379.379,0,0,0,.379.379H6.167a.638.638,0,1,1,0,1.276Z" transform="translate(0 -172)"/>
        </g>
        <g id="Grupo_1193605" data-name="Grupo 1193605" transform="translate(57.526 43.911)">
          <path id="Trazado_1245675" data-name="Trazado 1245675" d="M232.524,177.106a.638.638,0,0,1-.638-.638v-2.812a.379.379,0,0,0-.379-.379h-5.536a.638.638,0,0,1,0-1.276h5.536a1.657,1.657,0,0,1,1.655,1.656v2.812A.638.638,0,0,1,232.524,177.106Z" transform="translate(-225.333 -172)"/>
        </g>
        <g id="Grupo_1193606" data-name="Grupo 1193606" transform="translate(7.239 36.232)">
          <path id="Trazado_1245676" data-name="Trazado 1245676" d="M46.643,171.046H32.657a4.306,4.306,0,0,1-4.3-4.3V147.208a5.292,5.292,0,0,1,5.286-5.286H45.658a5.292,5.292,0,0,1,5.286,5.286v19.536A4.306,4.306,0,0,1,46.643,171.046Zm-13-27.847a4.014,4.014,0,0,0-4.01,4.01v19.536a3.028,3.028,0,0,0,3.025,3.024H46.643a3.028,3.028,0,0,0,3.025-3.024V147.208a4.014,4.014,0,0,0-4.01-4.01Z" transform="translate(-28.356 -141.922)"/>
        </g>
        <g id="Grupo_1193607" data-name="Grupo 1193607" transform="translate(14.91 49.019)">
          <path id="Trazado_1245677" data-name="Trazado 1245677" d="M65.011,193.285h-5.97a.638.638,0,1,1,0-1.276h5.97a.638.638,0,1,1,0,1.276Z" transform="translate(-58.403 -192.009)"/>
        </g>
        <g id="Grupo_1193608" data-name="Grupo 1193608" transform="translate(3.829 55.27)">
          <path id="Trazado_1245678" data-name="Trazado 1245678" d="M22.711,226.58H17.338A2.341,2.341,0,0,1,15,224.242v-5.409a2.34,2.34,0,0,1,2.338-2.338h1.524a.638.638,0,1,1,0,1.276H17.338a1.063,1.063,0,0,0-1.061,1.062v5.409a1.063,1.063,0,0,0,1.061,1.062h5.373a.638.638,0,1,1,0,1.276Z" transform="translate(-15 -216.495)"/>
        </g>
        <g id="Grupo_1193609" data-name="Grupo 1193609" transform="translate(24.888 55.27)">
          <path id="Trazado_1245679" data-name="Trazado 1245679" d="M103.5,226.58H98.125a.638.638,0,1,1,0-1.276H103.5a1.063,1.063,0,0,0,1.061-1.062v-5.409a1.063,1.063,0,0,0-1.061-1.062h-1.434a.638.638,0,1,1,0-1.276H103.5a2.34,2.34,0,0,1,2.338,2.338v5.409A2.34,2.34,0,0,1,103.5,226.58Z" transform="translate(-97.487 -216.495)"/>
        </g>
        <g id="Grupo_1193610" data-name="Grupo 1193610" transform="translate(14.306 32.822)">
          <path id="Trazado_1245680" data-name="Trazado 1245680" d="M63.854,133.251H56.676a.638.638,0,0,1-.637-.672,4.232,4.232,0,0,1,8.453,0,.638.638,0,0,1-.637.672Zm-6.428-1.276H63.1a2.955,2.955,0,0,0-5.677,0Z" transform="translate(-56.038 -128.565)"/>
        </g>
        <g id="Grupo_1193611" data-name="Grupo 1193611" transform="translate(42.124 43.911)">
          <path id="Trazado_1245681" data-name="Trazado 1245681" d="M177.552,173.276H165.638a.638.638,0,0,1,0-1.276h11.914a.638.638,0,0,1,0,1.276Z" transform="translate(-165 -172)"/>
        </g>
        <g id="Grupo_1193612" data-name="Grupo 1193612" transform="translate(0 28.874)">
          <path id="Trazado_1245682" data-name="Trazado 1245682" d="M.638,129.413A.638.638,0,0,1,0,128.775v-6.2a4.485,4.485,0,0,1,1.264-3.13L5.653,114.9a7.145,7.145,0,0,1,2.734-1.759.638.638,0,0,1,.427,1.2,5.863,5.863,0,0,0-2.243,1.442l-4.389,4.546a3.214,3.214,0,0,0-.906,2.243v6.2a.638.638,0,0,1-.638.638Z" transform="translate(0 -113.099)"/>
        </g>
        <g id="Grupo_1193613" data-name="Grupo 1193613" transform="translate(19.303 7.935)">
          <path id="Trazado_1245683" data-name="Trazado 1245683" d="M76.247,46.265A.638.638,0,0,1,75.7,45.3l7.464-12.388a3.776,3.776,0,0,1,6.35-.184l4.147,6.061a.638.638,0,1,1-1.054.721l-4.147-6.061a2.5,2.5,0,0,0-4.2.121L76.794,45.956A.638.638,0,0,1,76.247,46.265Z" transform="translate(-75.609 -31.082)"/>
        </g>
        <g id="Grupo_1193614" data-name="Grupo 1193614" transform="translate(4.363 18.903)">
          <path id="Trazado_1245684" data-name="Trazado 1245684" d="M35.053,85.266h-14.2a3.818,3.818,0,0,1-2.7-1.132,3.663,3.663,0,0,1,.134-5.3,3.713,3.713,0,0,1,2.78-.962.044.044,0,0,0,.028-.006,5.61,5.61,0,0,1,10.266-.852.041.041,0,0,0,.026.022,4.143,4.143,0,0,1,3.987,1.933.041.041,0,0,0,.031.014,3.15,3.15,0,0,1-.359,6.285ZM20.792,79.137a2.436,2.436,0,0,0-1.637.638,2.4,2.4,0,0,0-.788,1.758,2.372,2.372,0,0,0,.7,1.7,2.531,2.531,0,0,0,1.788.753h14.2a1.91,1.91,0,0,0,1.927-1.84,1.88,1.88,0,0,0-1.689-1.9,1.3,1.3,0,0,1-1-.614h0A2.861,2.861,0,0,0,31.542,78.3a1.3,1.3,0,0,1-1.3-.688,4.335,4.335,0,0,0-7.933.66,1.292,1.292,0,0,1-1.335.868c-.061,0-.122-.007-.183-.007Z" transform="translate(-17.091 -74.045)"/>
        </g>
        <g id="Grupo_1193615" data-name="Grupo 1193615" transform="translate(7.239 41.946)">
          <path id="Trazado_1245685" data-name="Trazado 1245685" d="M46.643,169.243H32.657a4.306,4.306,0,0,1-4.3-4.3.638.638,0,1,1,1.276,0,3.028,3.028,0,0,0,3.025,3.025H46.643a3.028,3.028,0,0,0,3.025-3.025.638.638,0,1,1,1.276,0A4.306,4.306,0,0,1,46.643,169.243Z" transform="translate(-28.356 -164.304)"/>
        </g>
        <g id="Grupo_1193616" data-name="Grupo 1193616" transform="translate(11.697 52.144)">
          <path id="Trazado_1245686" data-name="Trazado 1245686" d="M57.282,214.337H48.028a2.212,2.212,0,0,1-2.209-2.209v-5.667a2.212,2.212,0,0,1,2.209-2.209h9.253a2.212,2.212,0,0,1,2.209,2.209v5.667A2.212,2.212,0,0,1,57.282,214.337Zm-9.253-8.809a.934.934,0,0,0-.933.933v5.667a.934.934,0,0,0,.933.933h9.253a.934.934,0,0,0,.933-.933v-5.667a.934.934,0,0,0-.933-.933Z" transform="translate(-45.819 -204.252)"/>
        </g>
        <g id="Grupo_1193617" data-name="Grupo 1193617" transform="translate(24.573 36.592)">
          <path id="Trazado_1245687" data-name="Trazado 1245687" d="M96.89,153.353a.638.638,0,0,1-.638-.638v-8.744a.638.638,0,1,1,1.276,0v8.744A.638.638,0,0,1,96.89,153.353Z" transform="translate(-96.252 -143.333)"/>
        </g>
        <g id="Grupo_1193618" data-name="Grupo 1193618" transform="translate(21.447 36.592)">
          <path id="Trazado_1245688" data-name="Trazado 1245688" d="M84.647,153.353a.638.638,0,0,1-.638-.638v-8.744a.638.638,0,1,1,1.276,0v8.744A.638.638,0,0,1,84.647,153.353Z" transform="translate(-84.009 -143.333)"/>
        </g>
        <g id="Grupo_1193619" data-name="Grupo 1193619" transform="translate(14.343 36.614)">
          <path id="Trazado_1245689" data-name="Trazado 1245689" d="M56.821,153.416a.638.638,0,0,1-.638-.638v-8.722a.638.638,0,0,1,1.276,0v8.722A.638.638,0,0,1,56.821,153.416Z" transform="translate(-56.183 -143.417)"/>
        </g>
        <g id="Grupo_1193620" data-name="Grupo 1193620" transform="translate(11.217 36.592)">
          <path id="Trazado_1245690" data-name="Trazado 1245690" d="M44.577,153.353a.638.638,0,0,1-.638-.638v-8.744a.638.638,0,1,1,1.276,0v8.744A.638.638,0,0,1,44.577,153.353Z" transform="translate(-43.939 -143.333)"/>
        </g>
        <g id="Grupo_1193621" data-name="Grupo 1193621" transform="translate(12.01 55.27)">
          <path id="Trazado_1245691" data-name="Trazado 1245691" d="M59.456,217.772H47.68a.638.638,0,1,1,0-1.276H59.456a.638.638,0,1,1,0,1.276Z" transform="translate(-47.042 -216.496)"/>
        </g>
        <g id="Grupo_1193622" data-name="Grupo 1193622" transform="translate(22.562 16.594)">
          <path id="Trazado_1245692" data-name="Trazado 1245692" d="M101.348,72.04a.637.637,0,0,1-.487-.225l-2.2-2.589a1.123,1.123,0,0,0-.857-.4H95.892a2.39,2.39,0,0,1-1.876-.9L93.033,66.7a1.12,1.12,0,0,0-.879-.423H89.013a.638.638,0,0,1,0-1.276h3.141a2.39,2.39,0,0,1,1.876.9l.983,1.229a1.12,1.12,0,0,0,.879.422H97.8a2.4,2.4,0,0,1,1.83.846l2.2,2.589a.639.639,0,0,1-.486,1.052Z" transform="translate(-88.375 -65)"/>
        </g>
      </g>
    </g>
  </g>
</svg>
