<svg xmlns="http://www.w3.org/2000/svg" width="85" height="83" viewBox="0 0 85 83">
  <g id="Grupo_1189867" data-name="Grupo 1189867" transform="translate(-180.051 -925)">
    <rect id="Rectángulo_410572" data-name="Rectángulo 410572" width="85" height="83" transform="translate(180.051 925)" fill="#f6b32f"/>
    <g id="filled_outline" data-name="filled outline" transform="translate(187 921)">
      <path id="Trazado_1242461" data-name="Trazado 1242461" d="M321.994,26.726h-.909a2.726,2.726,0,1,0-5.451,0h-.909a2.726,2.726,0,1,0,0,5.451h7.268a2.726,2.726,0,0,0,0-5.451Z" transform="translate(-269.476 -7.091)" fill="#dbdbdb"/>
      <path id="Trazado_1242462" data-name="Trazado 1242462" d="M384.909,424.177a.909.909,0,0,1-.909-.909v-6.36a.909.909,0,1,1,1.817,0v6.36A.909.909,0,0,1,384.909,424.177Z" transform="translate(-333.299 -354.573)" fill="#744630"/>
      <path id="Trazado_1242463" data-name="Trazado 1242463" d="M317.8,195.086a3.634,3.634,0,0,0-3.634-3.634h-.909a3.634,3.634,0,1,0,0-7.268H313a6.36,6.36,0,1,0-12.19,0h-.265a3.634,3.634,0,1,0,0,7.268h-.909a3.634,3.634,0,1,0,0,7.268,3.634,3.634,0,1,0,0,7.268H314.17a3.634,3.634,0,0,0,0-7.268A3.634,3.634,0,0,0,317.8,195.086Z" transform="translate(-255.293 -141.836)" fill="#d1763e"/>
      <path id="Trazado_1242464" data-name="Trazado 1242464" d="M72,432h1.817v6.36H72Z" transform="translate(-56.732 -368.756)" fill="#744630"/>
      <path id="Trazado_1242465" data-name="Trazado 1242465" d="M168,432h1.817v6.36H168Z" transform="translate(-141.83 -368.756)" fill="#bd9070"/>
      <path id="Trazado_1242466" data-name="Trazado 1242466" d="M253.8,195.086a3.634,3.634,0,0,0-3.634-3.634h-.909a3.634,3.634,0,1,0,0-7.268H249a6.36,6.36,0,1,0-12.19,0h-.265a3.634,3.634,0,1,0,0,7.268h-.909a3.634,3.634,0,1,0,0,7.268,3.634,3.634,0,1,0,0,7.268H250.17a3.634,3.634,0,0,0,0-7.268A3.634,3.634,0,0,0,253.8,195.086Z" transform="translate(-198.561 -141.836)" fill="#aac16b"/>
      <path id="Trazado_1242467" data-name="Trazado 1242467" d="M290.7,229.969a.909.909,0,0,0-1.277-.142l-3.066,2.453V216.909a.909.909,0,1,0-1.817,0v8.1l-3.066-2.453a.909.909,0,0,0-1.136,1.419l4.2,3.362v18.642a.909.909,0,0,0,1.817,0V234.607l4.2-3.362A.909.909,0,0,0,290.7,229.969Z" transform="translate(-241.109 -177.286)" fill="#a45e14"/>
      <path id="Trazado_1242468" data-name="Trazado 1242468" d="M33.994,66.726h-.909a2.726,2.726,0,0,0-5.451,0h-.909a2.726,2.726,0,0,0,0,5.451h7.268a2.726,2.726,0,1,0,0-5.451Z" transform="translate(-14.183 -42.548)" fill="#ebebeb"/>
      <path id="Trazado_1242469" data-name="Trazado 1242469" d="M385.994,50.726h-.909a2.726,2.726,0,0,0-5.451,0h-.909a2.726,2.726,0,0,0,0,5.451h7.268a2.726,2.726,0,1,0,0-5.451Z" transform="translate(-326.208 -28.365)" fill="#ebebeb"/>
      <g id="Grupo_1189866" data-name="Grupo 1189866" transform="translate(22.536 18.726)">
        <path id="Trazado_1242470" data-name="Trazado 1242470" d="M208,40h1.817v2.726H208Z" transform="translate(-199.823 -40)" fill="#fbb540"/>
        <path id="Trazado_1242471" data-name="Trazado 1242471" d="M0,0H1.817V2.726H0Z" transform="translate(2.016 3.305) rotate(-45)" fill="#fbb540"/>
        <path id="Trazado_1242472" data-name="Trazado 1242472" d="M136,112h2.726v1.817H136Z" transform="translate(-136 -103.823)" fill="#fbb540"/>
        <path id="Trazado_1242473" data-name="Trazado 1242473" d="M0,0H2.726V1.817H0Z" transform="translate(2.015 14.867) rotate(-45)" fill="#fbb540"/>
        <path id="Trazado_1242474" data-name="Trazado 1242474" d="M208,176h1.817v2.726H208Z" transform="translate(-199.823 -160.555)" fill="#fbb540"/>
        <path id="Trazado_1242475" data-name="Trazado 1242475" d="M0,0H1.817V2.726H0Z" transform="translate(12.935 14.226) rotate(-45)" fill="#fbb540"/>
        <path id="Trazado_1242476" data-name="Trazado 1242476" d="M272,112h2.726v1.817H272Z" transform="translate(-256.555 -103.823)" fill="#fbb540"/>
        <path id="Trazado_1242477" data-name="Trazado 1242477" d="M0,0H2.726V1.817H0Z" transform="translate(12.936 3.948) rotate(-45)" fill="#fbb540"/>
        <circle id="Elipse_12393" data-name="Elipse 12393" cx="3.975" cy="3.975" r="3.975" transform="translate(5.11 5.11)" fill="#fbb540"/>
      </g>
      <path id="Trazado_1242478" data-name="Trazado 1242478" d="M62.511,480.885h0l-53.6-.119a.909.909,0,0,1,0-1.817l53.6.119a.909.909,0,0,1,0,1.817Z" transform="translate(0 -410.374)" fill="#5e8569"/>
      <path id="Trazado_1242479" data-name="Trazado 1242479" d="M36.719,283.987l-.694-.694a12.171,12.171,0,0,1-2.94-4.757h2.726l-.335-.223a8.374,8.374,0,0,1-3.3-4.319H34.9l-.182-.227A21.218,21.218,0,0,1,30.36,264,21.218,21.218,0,0,1,26,273.767l-.182.227h2.726a8.374,8.374,0,0,1-3.3,4.319l-.335.223h2.726a12.171,12.171,0,0,1-2.94,4.757l-.694.694Z" transform="translate(-14.183 -219.835)" fill="#aac16b"/>
      <path id="Trazado_1242480" data-name="Trazado 1242480" d="M132.719,283.988l-.694-.694a12.171,12.171,0,0,1-2.94-4.757h2.726l-.335-.223a8.374,8.374,0,0,1-3.3-4.319H130.9l-.182-.227A21.218,21.218,0,0,1,126.36,264,21.217,21.217,0,0,1,122,273.767l-.182.227h2.726a8.374,8.374,0,0,1-3.3,4.319l-.335.223h2.726a12.171,12.171,0,0,1-2.94,4.757l-.694.694Z" transform="translate(-99.281 -219.835)" fill="#6b9777"/>
      <path id="Trazado_1242481" data-name="Trazado 1242481" d="M63.42,187.987a4.546,4.546,0,0,0-2.333-3.968,4.543,4.543,0,0,0-2.277-7.766,7.269,7.269,0,0,0-10.839-7.278,7.266,7.266,0,0,0-10.831,7.28,4.541,4.541,0,0,0-2.277,7.765,4.54,4.54,0,0,0-.513,7.6,4.579,4.579,0,0,0-1.129,1.231.9.9,0,0,0-.187-.17l-.335-.223a7.5,7.5,0,0,1-2.421-2.654h1.344a.909.909,0,0,0,.709-1.476l-.182-.227a20.354,20.354,0,0,1-4.174-9.348.909.909,0,0,0-1.792,0,20.354,20.354,0,0,1-4.174,9.348l-.182.227a.909.909,0,0,0,.709,1.476H23.88a7.507,7.507,0,0,1-2.252,2.534,7.5,7.5,0,0,1-2.252-2.534h1.344a.909.909,0,0,0,.709-1.476l-.182-.227a20.368,20.368,0,0,1-4.174-9.349.909.909,0,0,0-1.792,0,20.289,20.289,0,0,1-1.489,4.942,20.346,20.346,0,0,1-2.685,4.406l-.182.227a.909.909,0,0,0,.709,1.476H12.98a7.467,7.467,0,0,1-2.424,2.655l-.335.224a.909.909,0,0,0,.5,1.664h1.388a11.212,11.212,0,0,1-2.244,3.206l-.694.694a.909.909,0,0,0,.642,1.551h5.451v3.529l-6.358-.014a.909.909,0,0,0,0,1.817l53.6.119h0a.909.909,0,0,0,0-1.817l-10-.023V199.8h6.36a4.543,4.543,0,0,0,3.212-7.755,4.612,4.612,0,0,0-.487-.423,4.539,4.539,0,0,0,1.817-3.632Zm-30.89,6.36a.9.9,0,0,0,.095-.008,4.519,4.519,0,0,0,.258,2.671,11.351,11.351,0,0,1-1.739-2.663Zm-7.44-1.44a.909.909,0,0,0-.737-.377h-.2a9.316,9.316,0,0,0,1.975-3.347.908.908,0,0,0-.862-1.2h-.906a22.2,22.2,0,0,0,2.723-5.4,22.2,22.2,0,0,0,2.723,5.4H28.9a.909.909,0,0,0-.862,1.2,9.317,9.317,0,0,0,1.975,3.347h-.2a.909.909,0,0,0-.862,1.2,13.156,13.156,0,0,0,2.376,4.255h-8.48a13.156,13.156,0,0,0,2.376-4.255A.909.909,0,0,0,25.09,192.907Zm-3.463,1.44h1.387a11.357,11.357,0,0,1-1.387,2.24,11.368,11.368,0,0,1-1.387-2.24Zm-9.691,3.634a13.042,13.042,0,0,0,2.376-4.255.909.909,0,0,0-.862-1.2h-.2q.286-.31.544-.647a9.252,9.252,0,0,0,1.429-2.7.909.909,0,0,0-.862-1.2h-.906a22.137,22.137,0,0,0,2-3.552q.4-.907.727-1.845a22.213,22.213,0,0,0,2.723,5.4h-.906a.909.909,0,0,0-.862,1.2,9.312,9.312,0,0,0,1.975,3.347h-.2a.909.909,0,0,0-.862,1.2,13.157,13.157,0,0,0,2.344,4.215l-.041.041Zm14.233,5.37-9.085-.02V199.8H26.17Zm17.262.038-15.445-.034V199.8h5.451a.9.9,0,0,0,.906-.913,4.519,4.519,0,0,0,2.728.913h6.36Zm7.268.016-5.451-.012v-3.6H50.7Zm.909-5.425h-6.36v-5.923l4.2-3.362a.909.909,0,1,0-1.136-1.419l-3.066,2.453V174.359a.909.909,0,0,0-1.817,0v8.1l-.721-.577-.01-.008-2.335-1.868a.909.909,0,1,0-1.136,1.419l2.319,1.855.007.006,1.876,1.5v13.191h-6.36a2.726,2.726,0,1,1,0-5.451.909.909,0,1,0,0-1.817,2.726,2.726,0,1,1,0-5.451h.909a.909.909,0,0,0,0-1.817,2.726,2.726,0,1,1,0-5.451h.265a.909.909,0,0,0,.871-1.168,5.451,5.451,0,1,1,10.448,0,.909.909,0,0,0,.871,1.168H50.7a2.726,2.726,0,1,1,0,5.451.909.909,0,1,0,0,1.817h.909a2.726,2.726,0,1,1,0,5.451.909.909,0,1,0,0,1.817,2.726,2.726,0,1,1,0,5.451Zm7.268-7.268a.909.909,0,1,0,0,1.817,2.726,2.726,0,1,1,0,5.451H55.241a4.536,4.536,0,0,0-.909-6.36,4.54,4.54,0,0,0-.513-7.6,4.541,4.541,0,0,0-2.277-7.765,7.253,7.253,0,0,0-1.983-6.039,5.453,5.453,0,0,1,7.274,6.61.909.909,0,0,0,.871,1.168h.265a2.726,2.726,0,1,1,0,5.451.909.909,0,1,0,0,1.817h.909a2.726,2.726,0,1,1,0,5.451Z" transform="translate(0 -134.737)"/>
      <path id="Trazado_1242482" data-name="Trazado 1242482" d="M19.634,65.993H26.9a3.635,3.635,0,0,0,3.146-1.817h2.305V62.359H30.536A3.638,3.638,0,0,0,26.9,58.725h-.115a3.635,3.635,0,0,0-7.038,0h-.115a3.634,3.634,0,0,0,0,7.268Zm0-5.451h.909a.909.909,0,0,0,.909-.909,1.817,1.817,0,1,1,3.634,0,.909.909,0,0,0,.909.909H26.9a1.817,1.817,0,1,1,0,3.634H19.634a1.817,1.817,0,0,1,0-3.634Z" transform="translate(-7.092 -35.456)"/>
      <path id="Trazado_1242483" data-name="Trazado 1242483" d="M322.17,21.452h-.115a3.632,3.632,0,0,0-5.336-2.237,3.625,3.625,0,0,0-1.817-.488h-.114a3.635,3.635,0,0,0-7.039,0h-.115a3.634,3.634,0,1,0,0,7.268h3.749A3.64,3.64,0,0,0,314.9,28.72h7.268a3.634,3.634,0,1,0,0-7.268Zm-10.787,2.726h-3.749a1.817,1.817,0,1,1,0-3.634h.909a.909.909,0,0,0,.909-.909,1.817,1.817,0,1,1,3.634,0,.909.909,0,0,0,.909.909h.909a1.817,1.817,0,0,1,.454.059,3.607,3.607,0,0,0-.339.849H314.9A3.64,3.64,0,0,0,311.383,24.177ZM322.17,26.9H314.9a1.817,1.817,0,1,1,0-3.634h.909a.909.909,0,0,0,.909-.909,1.817,1.817,0,0,1,3.634,0,.909.909,0,0,0,.909.909h.909a1.817,1.817,0,0,1,0,3.634Z" transform="translate(-262.385)"/>
      <path id="Trazado_1242484" data-name="Trazado 1242484" d="M208,40h1.817v2.726H208Z" transform="translate(-177.287 -21.274)"/>
      <path id="Trazado_1242485" data-name="Trazado 1242485" d="M0,0H1.817V2.726H0Z" transform="translate(24.552 22.031) rotate(-45)"/>
      <path id="Trazado_1242486" data-name="Trazado 1242486" d="M0,0H2.726V1.817H0Z" transform="translate(24.551 33.593) rotate(-45)"/>
      <path id="Trazado_1242487" data-name="Trazado 1242487" d="M208,176h1.817v2.726H208Z" transform="translate(-177.287 -141.829)"/>
      <path id="Trazado_1242488" data-name="Trazado 1242488" d="M0,0H1.817V2.726H0Z" transform="translate(35.471 32.952) rotate(-45)"/>
      <path id="Trazado_1242489" data-name="Trazado 1242489" d="M272,112h2.726v1.817H272Z" transform="translate(-234.019 -85.097)"/>
      <path id="Trazado_1242490" data-name="Trazado 1242490" d="M0,0H2.726V1.817H0Z" transform="translate(35.472 22.674) rotate(-45)"/>
      <path id="Trazado_1242491" data-name="Trazado 1242491" d="M177.883,86.767A4.883,4.883,0,1,0,173,81.883,4.883,4.883,0,0,0,177.883,86.767Zm0-7.95a3.066,3.066,0,1,1-3.066,3.066A3.066,3.066,0,0,1,177.883,78.817Z" transform="translate(-146.262 -54.072)"/>
    </g>
  </g>
</svg>
