<svg xmlns="http://www.w3.org/2000/svg" width="190" height="176" viewBox="0 0 190 176">
  <g id="Grupo_1193714" data-name="Grupo 1193714" transform="translate(-1230.051 -2414)">
    <rect id="Rectángulo_410597" data-name="Rectángulo 410597" width="190" height="176" transform="translate(1230.051 2414)" fill="#fdefd4"/>
    <g id="Grupo_1193713" data-name="Grupo 1193713" transform="translate(231.23 242.554)">
      <g id="ecosistema" transform="translate(1031.051 2196.493)">
        <g id="Grupo_1193711" data-name="Grupo 1193711" transform="translate(16.398 16.521)">
          <path id="Trazado_1246778" data-name="Trazado 1246778" d="M113.248,66.634A46.261,46.261,0,0,0,96.642,69.7a9.578,9.578,0,0,1,6.3,8.254,7.21,7.21,0,0,1,9.2,8.834h2.393a3.854,3.854,0,1,1,0,7.707H86.187a3.854,3.854,0,0,1,0-7.707h2.081a9.557,9.557,0,0,1-4.3-9.742,46.371,46.371,0,1,0,29.276-10.411Z" transform="translate(-66.876 -66.634)" fill="#b3dafe"/>
          <path id="Trazado_1246779" data-name="Trazado 1246779" d="M322.254,320.1h6.592v9.057h-6.592Z" transform="translate(-259.637 -257.955)" fill="#ffbd86"/>
          <g id="Grupo_1193704" data-name="Grupo 1193704" transform="translate(53.201 27.478)">
            <path id="Trazado_1246780" data-name="Trazado 1246780" d="M309.209,283.526l-6.3-10.907h-12.7l-6.3,10.907a.49.49,0,0,0,.425.736h24.442A.49.49,0,0,0,309.209,283.526Z" transform="translate(-283.851 -249.591)" fill="#00c285"/>
            <path id="Trazado_1246781" data-name="Trazado 1246781" d="M290.084,283.526l6.3-10.907h-6.166l-6.3,10.907a.49.49,0,0,0,.425.736h6.166A.49.49,0,0,1,290.084,283.526Z" transform="translate(-283.851 -249.591)" fill="#07b27b"/>
            <path id="Trazado_1246782" data-name="Trazado 1246782" d="M314.892,238.548l-5.827-10.093H300.9l-5.827,10.093a.49.49,0,0,0,.425.736h18.973A.49.49,0,0,0,314.892,238.548Z" transform="translate(-292.269 -216.255)" fill="#0ed290"/>
            <path id="Trazado_1246783" data-name="Trazado 1246783" d="M301.349,238.548l5.827-10.093H300.9l-5.827,10.093a.49.49,0,0,0,.425.736h6.279a.49.49,0,0,1-.425-.736Z" transform="translate(-292.269 -216.255)" fill="#00c285"/>
            <g id="Grupo_1193702" data-name="Grupo 1193702" transform="translate(5.744)">
              <path id="Trazado_1246784" data-name="Trazado 1246784" d="M313.82,178.945l-6.477,11.219a.49.49,0,0,0,.425.736h12.955a.49.49,0,0,0,.425-.736l-6.477-11.219A.49.49,0,0,0,313.82,178.945Z" transform="translate(-307.276 -178.7)" fill="#1ee6a6"/>
            </g>
            <g id="Grupo_1193703" data-name="Grupo 1193703" transform="translate(5.744 0)">
              <path id="Trazado_1246785" data-name="Trazado 1246785" d="M312.424,190.165l4.361-7.554-2.116-3.665a.49.49,0,0,0-.849,0l-6.477,11.219a.49.49,0,0,0,.425.736h5.081A.491.491,0,0,1,312.424,190.165Z" transform="translate(-307.276 -178.701)" fill="#0ed290"/>
            </g>
          </g>
          <g id="Grupo_1193705" data-name="Grupo 1193705" transform="translate(0)">
            <path id="Trazado_1246786" data-name="Trazado 1246786" d="M192.416,72.618a46.073,46.073,0,0,1,17.628-5.7,46.893,46.893,0,0,0-5.164-.288A46.261,46.261,0,0,0,188.273,69.7,9.593,9.593,0,0,1,192.416,72.618Z" transform="translate(-158.507 -66.633)" fill="#8ac9fe"/>
            <path id="Trazado_1246787" data-name="Trazado 1246787" d="M77.205,145.057a46.158,46.158,0,0,1,9.217-27.748,9.548,9.548,0,0,1-2.45-8.213,46.371,46.371,0,0,0,29.276,82.333,46.824,46.824,0,0,0,5.164-.288,46.377,46.377,0,0,1-41.208-46.084Z" transform="translate(-66.877 -98.684)" fill="#8ac9fe"/>
          </g>
          <g id="Grupo_1193706" data-name="Grupo 1193706" transform="translate(7.206 71.207)">
            <path id="Trazado_1246788" data-name="Trazado 1246788" d="M96.266,357.044a46.381,46.381,0,0,0,78.331,0Z" transform="translate(-96.266 -357.044)" fill="#1ee6a6"/>
          </g>
          <g id="Grupo_1193707" data-name="Grupo 1193707" transform="translate(7.206 71.207)">
            <path id="Trazado_1246789" data-name="Trazado 1246789" d="M96.266,357.044l.177.277a46.333,46.333,0,0,0,38.989,21.26,46.832,46.832,0,0,0,5.164-.288,46.367,46.367,0,0,1-34-21.249H96.266Z" transform="translate(-96.266 -357.044)" fill="#0ed290"/>
          </g>
          <g id="Grupo_1193710" data-name="Grupo 1193710" transform="translate(15.457 2.501)">
            <path id="Trazado_1246790" data-name="Trazado 1246790" d="M140.444,94.484h1.281c0-.082-.006-.165-.006-.249a5.469,5.469,0,0,1,8.9-4.255,7.229,7.229,0,0,1,4.489-4.329,9.571,9.571,0,1,0-14.669,8.833Z" transform="translate(-134.509 -76.832)" fill="#fbd74c"/>
            <path id="Trazado_1246791" data-name="Trazado 1246791" d="M140.445,94.484h1.281c0-.082-.006-.165-.006-.249a5.449,5.449,0,0,1,1.53-3.792,9.576,9.576,0,0,1,5.5-13.07,9.572,9.572,0,0,0-8.307,17.11Z" transform="translate(-134.51 -76.832)" fill="#fac600"/>
            <g id="Grupo_1193708" data-name="Grupo 1193708" transform="translate(0 8.453)">
              <path id="Trazado_1246792" data-name="Trazado 1246792" d="M162.114,120.507h-2.393a7.211,7.211,0,0,0-13.689-4.5,5.469,5.469,0,0,0-8.9,4.255c0,.083,0,.166.006.249h-3.363a3.854,3.854,0,0,0,0,7.707h28.343a3.854,3.854,0,1,0,0-7.707Z" transform="translate(-129.917 -111.308)" fill="#fff"/>
            </g>
            <g id="Grupo_1193709" data-name="Grupo 1193709" transform="translate(0 8.453)">
              <path id="Trazado_1246793" data-name="Trazado 1246793" d="M152.791,111.308a7.212,7.212,0,0,0-6.759,4.7,5.469,5.469,0,0,0-8.9,4.255c0,.083,0,.166.006.249h-3.261a3.922,3.922,0,0,0-3.927,3.384,3.863,3.863,0,0,0,3.826,4.324h.1a3.863,3.863,0,0,1,3.844-3.662h2.243a1.228,1.228,0,0,0,1.206-1.014,5.645,5.645,0,0,1,5.378-4.7,5.44,5.44,0,0,1,2.413.561,1.2,1.2,0,0,0,1.556-.472,7.214,7.214,0,0,1,9-3.014A7.211,7.211,0,0,0,152.791,111.308Z" transform="translate(-129.918 -111.308)" fill="#eaf6ff"/>
            </g>
          </g>
        </g>
        <g id="Grupo_1193712" data-name="Grupo 1193712" transform="translate(0 0.243)">
          <path id="Trazado_1246794" data-name="Trazado 1246794" d="M439.939,87.277h3.229a1.839,1.839,0,0,0,0-3.678h-7.279a1.839,1.839,0,0,0-1.839,1.839v7.279a1.839,1.839,0,1,0,3.678,0V90.439a59.087,59.087,0,0,1-2.484,73.844,1.839,1.839,0,0,0,2.791,2.4,62.761,62.761,0,0,0,1.9-79.4Z" transform="translate(-327.624 -63.161)"/>
          <path id="Trazado_1246795" data-name="Trazado 1246795" d="M269.767,4.206a58.57,58.57,0,0,1,33.815,14.056,1.839,1.839,0,1,0,2.4-2.79A62.223,62.223,0,0,0,270.053.54a1.839,1.839,0,1,0-.286,3.667Z" transform="translate(-202.342 -0.463)"/>
          <path id="Trazado_1246796" data-name="Trazado 1246796" d="M155.111,260.887a1.839,1.839,0,1,0-3.678,0v3.118a1.839,1.839,0,1,0,3.678,0Z" transform="translate(-114.303 -195.591)"/>
          <path id="Trazado_1246797" data-name="Trazado 1246797" d="M155.111,221.676a1.839,1.839,0,0,0-3.678,0v3.118a1.839,1.839,0,0,0,3.678,0Z" transform="translate(-114.303 -165.994)"/>
          <path id="Trazado_1246798" data-name="Trazado 1246798" d="M153.272,298.258a1.839,1.839,0,0,0-1.839,1.839v1.471a1.839,1.839,0,0,0,3.678,0V300.1A1.839,1.839,0,0,0,153.272,298.258Z" transform="translate(-114.303 -225.187)"/>
          <path id="Trazado_1246799" data-name="Trazado 1246799" d="M184.778,260.887a1.839,1.839,0,1,0-3.678,0v3.118a1.839,1.839,0,1,0,3.678,0Z" transform="translate(-136.695 -195.591)"/>
          <path id="Trazado_1246800" data-name="Trazado 1246800" d="M184.778,221.676a1.839,1.839,0,0,0-3.678,0v3.118a1.839,1.839,0,0,0,3.678,0Z" transform="translate(-136.695 -165.994)"/>
          <path id="Trazado_1246801" data-name="Trazado 1246801" d="M182.939,298.258A1.839,1.839,0,0,0,181.1,300.1v1.471a1.839,1.839,0,0,0,3.678,0V300.1A1.839,1.839,0,0,0,182.939,298.258Z" transform="translate(-136.695 -225.187)"/>
          <path id="Trazado_1246802" data-name="Trazado 1246802" d="M212.6,226.633a1.839,1.839,0,0,0,1.839-1.839v-3.118a1.839,1.839,0,0,0-3.678,0v3.118A1.839,1.839,0,0,0,212.6,226.633Z" transform="translate(-159.088 -165.994)"/>
          <path id="Trazado_1246803" data-name="Trazado 1246803" d="M210.766,264.005a1.839,1.839,0,1,0,3.678,0v-3.118a1.839,1.839,0,1,0-3.678,0Z" transform="translate(-159.088 -195.591)"/>
          <path id="Trazado_1246804" data-name="Trazado 1246804" d="M210.766,301.568a1.839,1.839,0,0,0,3.678,0V300.1a1.839,1.839,0,0,0-3.678,0Z" transform="translate(-159.088 -225.187)"/>
          <path id="Trazado_1246805" data-name="Trazado 1246805" d="M244.11,260.887a1.839,1.839,0,1,0-3.678,0v3.118a1.839,1.839,0,1,0,3.678,0Z" transform="translate(-181.48 -195.591)"/>
          <path id="Trazado_1246806" data-name="Trazado 1246806" d="M244.11,221.676a1.839,1.839,0,1,0-3.678,0v3.118a1.839,1.839,0,1,0,3.678,0Z" transform="translate(-181.48 -165.994)"/>
          <path id="Trazado_1246807" data-name="Trazado 1246807" d="M242.271,298.258a1.839,1.839,0,0,0-1.839,1.839v1.471a1.839,1.839,0,0,0,3.678,0V300.1A1.839,1.839,0,0,0,242.271,298.258Z" transform="translate(-181.48 -225.187)"/>
          <path id="Trazado_1246808" data-name="Trazado 1246808" d="M87.736,61.634a11.429,11.429,0,0,0-11.1,8.786,48.2,48.2,0,1,0,78.838,42.531,1.839,1.839,0,0,0-3.653-.423,44.285,44.285,0,0,1-6.073,17.813H132.263v-5.38h7.086a2.329,2.329,0,0,0,2.017-3.494l-4.706-8.152a2.327,2.327,0,0,0,1.972-3.491l-4.3-7.455A2.321,2.321,0,0,0,135.623,99l-6.478-11.22a2.33,2.33,0,0,0-4.034,0h0L118.633,99a2.321,2.321,0,0,0,1.3,3.373l-4.3,7.455a2.327,2.327,0,0,0,1.972,3.491l-4.707,8.152a2.33,2.33,0,0,0,2.018,3.494h7.086v5.38H103.173a1.839,1.839,0,1,0,0,3.678h40.1a44.534,44.534,0,0,1-71.323,0H94.592a1.839,1.839,0,1,0,0-3.678H92.753v-3.38a1.839,1.839,0,1,0-3.678,0v3.38H87.767v-3.38a1.839,1.839,0,1,0-3.678,0v3.38H82.781v-3.38a1.839,1.839,0,1,0-3.678,0v3.38H77.8v-3.38a1.839,1.839,0,1,0-3.678,0v3.38H69.464a44.453,44.453,0,0,1,7.111-54.921,11.356,11.356,0,0,0,1.886,4.257,5.692,5.692,0,0,0,2.066,11h1.422V93.88a1.839,1.839,0,0,0,3.678,0V90.672h3.6V93.88a1.839,1.839,0,0,0,3.678,0V90.672h3.6V93.88a1.839,1.839,0,0,0,3.678,0V90.672h3.6V93.88a1.839,1.839,0,0,0,3.678,0V90.672h1.422a5.693,5.693,0,1,0,0-11.385h-.276q0-.075,0-.15a9.059,9.059,0,0,0-9.049-9.049c-.263,0-.523.016-.782.038a11.425,11.425,0,0,0-3.441-5.594,44.535,44.535,0,0,1,56.69,39.75,1.839,1.839,0,1,0,3.669-.249A48.208,48.208,0,0,0,90.951,62.1a11.376,11.376,0,0,0-3.215-.462Zm39.392,30,4.142,7.173h-8.283Zm-3.022,10.851h6.045l4.129,7.151h-14.3Zm-6.863,18.794,4.6-7.965h10.573l4.6,7.965Zm11.342,9.057h-2.914v-5.38h2.914Zm-23.668-51.2a5.383,5.383,0,0,1-.209,1.483,1.839,1.839,0,0,0,1.768,2.345h2.394a2.015,2.015,0,1,1,0,4.03H80.526a2.015,2.015,0,1,1,0-4.03h3.363a1.839,1.839,0,0,0,1.837-1.919c0-.056,0-.112,0-.169a3.635,3.635,0,0,1,3.631-3.631,3.587,3.587,0,0,1,2.279.806,1.839,1.839,0,0,0,2.879-.789,5.372,5.372,0,0,1,10.406,1.874ZM92.042,74.083A7.3,7.3,0,0,0,82.4,78.632a7.73,7.73,0,1,1,12.844-7.445A9.12,9.12,0,0,0,92.042,74.083Z" transform="translate(-44.817 -44.694)"/>
          <path id="Trazado_1246809" data-name="Trazado 1246809" d="M82.656,20.113h7.279a1.839,1.839,0,1,0,0-3.678H87.254A58.45,58.45,0,0,1,120.1,3.917a1.839,1.839,0,1,0-.225-3.671A62.106,62.106,0,0,0,84.495,13.934V10.995a1.839,1.839,0,1,0-3.678,0v7.279A1.839,1.839,0,0,0,82.656,20.113Z" transform="translate(-61.001 -0.243)"/>
          <path id="Trazado_1246810" data-name="Trazado 1246810" d="M17.341,159.436a1.839,1.839,0,0,0-1.839,1.839v2.165a59.085,59.085,0,0,1,2.416-73.932,1.839,1.839,0,1,0-2.791-2.4,62.764,62.764,0,0,0-1.749,79.6H10.062a1.839,1.839,0,1,0,0,3.678h7.279a1.839,1.839,0,0,0,1.839-1.839v-7.279a1.839,1.839,0,0,0-1.839-1.839Z" transform="translate(0 -65.328)"/>
          <path id="Trazado_1246811" data-name="Trazado 1246811" d="M169.74,429.685H162.46a1.839,1.839,0,1,0,0,3.678H164.9a59.081,59.081,0,0,1-75.153-1.473,1.839,1.839,0,0,0-2.4,2.791,62.762,62.762,0,0,0,80.548.992V438.8a1.839,1.839,0,1,0,3.678,0v-7.279a1.839,1.839,0,0,0-1.839-1.839Z" transform="translate(-65.451 -324.389)"/>
          <path id="Trazado_1246812" data-name="Trazado 1246812" d="M290.752,108.723a7.3,7.3,0,0,0-4.414-1.465,1.839,1.839,0,0,0,0,3.678,3.652,3.652,0,0,1,2.943,1.472,1.839,1.839,0,0,0,2.94,0,3.652,3.652,0,0,1,2.943-1.472,1.839,1.839,0,1,0,0-3.678A7.3,7.3,0,0,0,290.752,108.723Z" transform="translate(-214.742 -81.019)"/>
          <path id="Trazado_1246813" data-name="Trazado 1246813" d="M345.752,143.723a7.3,7.3,0,0,0-4.414-1.465,1.839,1.839,0,0,0,0,3.678,3.652,3.652,0,0,1,2.943,1.472,1.839,1.839,0,0,0,2.94,0,3.652,3.652,0,0,1,2.943-1.472,1.839,1.839,0,1,0,0-3.678A7.3,7.3,0,0,0,345.752,143.723Z" transform="translate(-256.257 -107.437)"/>
          <path id="Trazado_1246814" data-name="Trazado 1246814" d="M327.017,376.936a1.839,1.839,0,1,0,0-3.678h-3.678a1.839,1.839,0,0,0,0,3.678Z" transform="translate(-242.67 -281.797)"/>
          <path id="Trazado_1246815" data-name="Trazado 1246815" d="M280.017,405.936a1.839,1.839,0,1,0,0-3.678h-3.678a1.839,1.839,0,1,0,0,3.678Z" transform="translate(-207.194 -303.686)"/>
          <path id="Trazado_1246816" data-name="Trazado 1246816" d="M216.339,388.936h3.678a1.839,1.839,0,1,0,0-3.678h-3.678a1.839,1.839,0,0,0,0,3.678Z" transform="translate(-161.906 -290.855)"/>
          <path id="Trazado_1246817" data-name="Trazado 1246817" d="M150.339,374.258a1.839,1.839,0,0,0,0,3.678h3.678a1.839,1.839,0,1,0,0-3.678Z" transform="translate(-112.089 -282.552)"/>
        </g>
      </g>
    </g>
  </g>
</svg>
