<svg xmlns="http://www.w3.org/2000/svg" xmlns:xlink="http://www.w3.org/1999/xlink" width="72" height="72" viewBox="0 0 72 72">
  <defs>
    <clipPath id="clip-path">
      <path id="path21" d="M0-682.665H44.2v44.2H0Z" transform="translate(0 682.665)"/>
    </clipPath>
  </defs>
  <g id="Grupo_1193724" data-name="Grupo 1193724" transform="translate(-285 -3839)">
    <g id="Grupo_1193720" data-name="Grupo 1193720" transform="translate(-134 2718)">
      <path id="Trazado_824488" data-name="Trazado 824488" d="M36,0A36,36,0,1,1,0,36,36,36,0,0,1,36,0Z" transform="translate(419 1121)" fill="#f6b32f"/>
    </g>
    <g id="g15" transform="translate(299 4535.665)">
      <g id="g17" transform="translate(0 -682.665)">
        <g id="g19" transform="translate(0 0)" clip-path="url(#clip-path)">
          <g id="g25" transform="translate(0.625 13.979)">
            <path id="path27" d="M-.318-238.62a64.348,64.348,0,0,1,20.074-12.851c7.292-3.022,15.03-3.846,22.851-3.637v29.543H-.34Z" transform="translate(0.34 255.139)" fill="#b3e897"/>
          </g>
          <g id="g29" transform="translate(27.012 8.534)">
            <path id="path31" d="M-38.186-201.464l-2.644,2.644,5.81,4.84h7.666v-11.793l-3.591-4.845h2.112l-3.509-4.792-3.509,4.792h2.112l-4.151,5.67h2.254Z" transform="translate(40.829 215.411)" fill="#298b65"/>
          </g>
          <g id="g33" transform="translate(34.205 8.534)">
            <path id="path35" d="M-38.877-69.229h2.112l-3.508-4.793-1.295,1.769,2.214,3.024h-2.112l6.181,8.255v-3.41Z" transform="translate(41.568 74.021)" fill="#247a59"/>
          </g>
          <g id="g37" transform="translate(15.69 9.98)">
            <path id="path39" d="M-43.328-213.575v5.2h9.058v-4.9l-4.277-5.105H-36.4l-3.961-5.41h2.015l-3.348-4.573-3.348,4.573h2.015l-3.306,4.516v5.7Z" transform="translate(46.328 228.361)" fill="#32a670"/>
          </g>
          <g id="g41" transform="translate(22.922 19.565)">
            <path id="path43" d="M-71.5,0l-3.474,5.679h1.411L-76.45,10.4h9.9l-2.888-4.721h1.411Z" transform="translate(76.45)" fill="#206b4e"/>
          </g>
          <g id="g45" transform="translate(9.368 14.365)">
            <path id="path47" d="M-101.292-82.038h1.411l-3.474-5.679-3.474,5.679h1.411l-2.888,4.721h9.926Z" transform="translate(108.304 87.717)" fill="#298b65"/>
          </g>
          <g id="g49" transform="translate(12.289 21.496)">
            <path id="path51" d="M-204.892-231.036l-4.609-6.011h2.151l-3.961-5.41h2.015l-3.348-4.573-3.348,4.573h2.015l-3.961,5.41h2.151l-3.29,4.494,1.022,1.516Z" transform="translate(219.077 247.03)" fill="#206b4e"/>
          </g>
          <g id="g53" transform="translate(21.438 33.921)">
            <path id="path55" d="M-116.329-118.892l-1.5-2.453h1.436l-3.534-5.778-3.534,5.778h1.436l-2.357,3.853h8.862Z" transform="translate(124.382 127.122)" fill="#32a670"/>
          </g>
          <g id="g57" transform="translate(0.647 27.558)">
            <path id="path59" d="M-217.914-231.036l-4.4-6.011h2.151l-3.961-5.41h2.015l-3.348-4.573-3.348,4.573h2.015l-3.961,5.41h2.151l-4.4,6.011Z" transform="translate(232.999 247.03)" fill="#298b65"/>
          </g>
          <g id="g61" transform="translate(32.694 16.129)">
            <path id="path63" d="M0-231.036l4.4-6.011H2.249l3.961-5.41H4.195l3.348-4.573,3.35,4.573H8.875l2,2.774v8.647H.628" transform="translate(0 247.03)" fill="#32a670"/>
          </g>
          <g id="g65" transform="translate(38.942 16.129)">
            <path id="path67" d="M-57.759-144.213l-3.961-5.41H-59.7l-2.053-2.8,1.295-1.769,3.348,4.573H-59.13l2,2.774v6.417l-2.783-3.781Z" transform="translate(61.757 154.197)" fill="#2e9968"/>
          </g>
          <g id="g69" transform="translate(28.467 27.558)">
            <path id="path71" d="M0-231.036l4.4-6.011H2.249l3.961-5.41H4.195l3.348-4.573,3.348,4.573H8.875l3.961,5.41H10.685l4.4,6.011Z" transform="translate(0 247.03)" fill="#206b4e"/>
          </g>
          <g id="g73" transform="translate(34.714 27.558)">
            <path id="path75" d="M-64.1-144.213h2.151l-3.961-5.41H-63.9l-3.348-4.573-1.295,1.769,2.053,2.8H-68.5l3.961,5.41h-2.151l4.4,6.011h2.59Z" transform="translate(68.538 154.197)" fill="#1b5c43"/>
          </g>
          <g id="g77" transform="translate(0.647 9.527)">
            <path id="path79" d="M-103.241-90.633a1.775,1.775,0,0,0,1.775-1.775,1.775,1.775,0,0,0-1.775-1.775,1.781,1.781,0,0,0-.282.023,2.453,2.453,0,0,0,.022-.32,2.426,2.426,0,0,0-2.426-2.426,2.426,2.426,0,0,0-2.426,2.426,2.437,2.437,0,0,0,.022.32,1.783,1.783,0,0,0-.282-.023,1.775,1.775,0,0,0-1.775,1.775,1.775,1.775,0,0,0,1.775,1.775Z" transform="translate(110.388 96.908)" fill="#d2f6ff"/>
          </g>
          <g id="g81" transform="translate(22.922 3.237)">
            <path id="path83" d="M-103.241-90.633a1.775,1.775,0,0,0,1.775-1.775,1.775,1.775,0,0,0-1.775-1.775,1.792,1.792,0,0,0-.282.022,2.45,2.45,0,0,0,.022-.32,2.426,2.426,0,0,0-2.426-2.426,2.426,2.426,0,0,0-2.426,2.426,2.435,2.435,0,0,0,.022.32,1.793,1.793,0,0,0-.282-.022,1.775,1.775,0,0,0-1.775,1.775,1.775,1.775,0,0,0,1.775,1.775Z" transform="translate(110.388 96.908)" fill="#d2f6ff"/>
          </g>
          <g id="g85" transform="translate(8.19 0.647)">
            <path id="path87" d="M-103.241-90.633a1.775,1.775,0,0,0,1.775-1.775,1.775,1.775,0,0,0-1.775-1.775,1.792,1.792,0,0,0-.282.022,2.45,2.45,0,0,0,.022-.32,2.426,2.426,0,0,0-2.426-2.426,2.426,2.426,0,0,0-2.426,2.426,2.45,2.45,0,0,0,.022.32,1.792,1.792,0,0,0-.282-.022,1.775,1.775,0,0,0-1.775,1.775,1.775,1.775,0,0,0,1.775,1.775Z" transform="translate(110.388 96.908)" fill="#d2f6ff"/>
          </g>
          <g id="g89" transform="translate(37.167 13.281)">
            <path id="path91" d="M-3.594-9.643h-.035a55.735,55.735,0,0,0-5.692-.015A.647.647,0,0,1-10-10.274a.647.647,0,0,1,.615-.678,57.035,57.035,0,0,1,5.825.016.647.647,0,0,1,.612.681A.648.648,0,0,1-3.594-9.643Z" transform="translate(10 11.019)"/>
          </g>
          <g id="g93" transform="translate(28.296 13.746)">
            <path id="path95" d="M-9.355-19.468a.648.648,0,0,1-.633-.514.647.647,0,0,1,.5-.767c1.459-.308,2.949-.562,4.428-.754a.647.647,0,0,1,.725.559.647.647,0,0,1-.559.725c-1.446.188-2.9.435-4.327.736A.65.65,0,0,1-9.355-19.468Z" transform="translate(10.002 21.508)"/>
          </g>
          <g id="g97" transform="translate(22.564 15.234)">
            <path id="path99" d="M-9.355-20.094a.648.648,0,0,1-.616-.448.647.647,0,0,1,.416-.816c.883-.287,1.785-.555,2.68-.8a.647.647,0,0,1,.794.456.647.647,0,0,1-.456.794c-.875.237-1.756.5-2.618.779A.647.647,0,0,1-9.355-20.094Z" transform="translate(10.003 22.177)"/>
          </g>
          <g id="g101" transform="translate(0 21.823)">
            <path id="path103" d="M-9.352-124.66a.646.646,0,0,1-.472-.2.647.647,0,0,1,.029-.915l1.429-1.342a56.934,56.934,0,0,1,8.775-6.762.647.647,0,0,1,.892.206.647.647,0,0,1-.206.892,55.634,55.634,0,0,0-8.575,6.608l-1.429,1.342A.645.645,0,0,1-9.352-124.66Z" transform="translate(10 133.982)"/>
          </g>
          <g id="g105" transform="translate(15.863 9.332)">
            <path id="path107" d="M-142.619-197.6a.647.647,0,0,1-.523-.265l-2.265-3.093a.647.647,0,0,1-.055-.675.647.647,0,0,1,.577-.355h.874l-3.207-4.38a.647.647,0,0,1-.055-.675.647.647,0,0,1,.577-.355h.739l-2.072-2.83-2.071,2.83h.739a.647.647,0,0,1,.577.355.647.647,0,0,1-.055.675l-2.486,3.4a.647.647,0,0,1-.9.14.647.647,0,0,1-.14-.9l1.732-2.366h-.739a.647.647,0,0,1-.577-.355.647.647,0,0,1,.055-.675l3.348-4.573a.647.647,0,0,1,.522-.265.647.647,0,0,1,.522.265l3.348,4.573a.647.647,0,0,1,.055.675.647.647,0,0,1-.577.355h-.739l3.207,4.38a.647.647,0,0,1,.055.675.648.648,0,0,1-.577.355h-.874l1.511,2.063a.647.647,0,0,1-.14.9A.645.645,0,0,1-142.619-197.6Z" transform="translate(152.492 211.973)"/>
          </g>
          <g id="g109" transform="translate(29.015 7.887)">
            <path id="path111" d="M-160.575-122.751a.644.644,0,0,1-.382-.125.647.647,0,0,1-.14-.9l1.789-2.444h-.978a.647.647,0,0,1-.577-.355.647.647,0,0,1,.055-.675l3.4-4.64h-.836a.647.647,0,0,1-.577-.355.648.648,0,0,1,.055-.675l3.509-4.792a.646.646,0,0,1,.522-.265.647.647,0,0,1,.522.265l3.508,4.792a.647.647,0,0,1,.055.675.647.647,0,0,1-.577.355h-.836l1.8,2.464a.647.647,0,0,1-.14.9.647.647,0,0,1-.9-.14l-2.558-3.494a.647.647,0,0,1-.055-.675.647.647,0,0,1,.577-.355h.836l-2.232-3.049-2.232,3.049h.836a.647.647,0,0,1,.577.355.647.647,0,0,1-.055.675l-3.4,4.64h.978a.647.647,0,0,1,.577.355.647.647,0,0,1-.055.675l-2.543,3.474A.647.647,0,0,1-160.575-122.751Z" transform="translate(161.222 137.982)"/>
          </g>
          <g id="g113" transform="translate(22.274 18.918)">
            <path id="path115" d="M-80.853-10a.647.647,0,0,1,.552.31l3.474,5.679a.647.647,0,0,1,.012.654.647.647,0,0,1-.565.331h-.256L-75.351.71a.647.647,0,0,1,.012.654A.647.647,0,0,1-75.9,1.7h-9.9a.647.647,0,0,1-.565-.331A.647.647,0,0,1-86.355.71l2.285-3.736h-.256a.647.647,0,0,1-.565-.331.647.647,0,0,1,.012-.654l3.474-5.679A.647.647,0,0,1-80.853-10Zm2.319,5.679-2.319-3.791-2.319,3.791h.256a.647.647,0,0,1,.565.331.647.647,0,0,1-.012.654L-84.648.4h7.59l-2.285-3.736a.647.647,0,0,1-.012-.654.647.647,0,0,1,.565-.331Z" transform="translate(86.45 10)"/>
          </g>
          <g id="g117" transform="translate(8.721 13.717)">
            <path id="path119" d="M-134.8-125.151h-6.792a.647.647,0,0,1-.565-.331.647.647,0,0,1,.012-.654l2.285-3.736h-.256a.647.647,0,0,1-.565-.331.647.647,0,0,1,.012-.654l3.474-5.679a.648.648,0,0,1,.552-.31h0a.647.647,0,0,1,.552.31l3.474,5.679a.647.647,0,0,1,.012.654.647.647,0,0,1-.565.331h-.256l.947,1.548a.647.647,0,0,1-.214.89.647.647,0,0,1-.89-.214l-1.55-2.533a.647.647,0,0,1-.012-.654.647.647,0,0,1,.565-.331h.256l-2.319-3.791-2.319,3.791h.256a.647.647,0,0,1,.565.331.647.647,0,0,1-.012.654l-2.285,3.736h5.637a.647.647,0,0,1,.647.647A.647.647,0,0,1-134.8-125.151Z" transform="translate(142.237 136.846)"/>
          </g>
          <g id="g121" transform="translate(11.642 20.848)">
            <path id="path123" d="M-174.054-239.741h-10.38a.648.648,0,0,1-.537-.286l-1.022-1.516a.647.647,0,0,1,.015-.744l2.536-3.464h-.874a.648.648,0,0,1-.577-.355.647.647,0,0,1,.055-.675l3.207-4.381h-.739a.647.647,0,0,1-.577-.355.647.647,0,0,1,.055-.675l3.348-4.573a.647.647,0,0,1,.522-.265.647.647,0,0,1,.522.265l3.348,4.573a.647.647,0,0,1,.055.675.647.647,0,0,1-.577.355h-.739l3.207,4.381a.647.647,0,0,1,.055.675.647.647,0,0,1-.577.355h-.844l2.27,2.983a.647.647,0,0,1,.035.734l-1.235,1.988A.647.647,0,0,1-174.054-239.741Zm-10.036-1.295h9.676l.81-1.3-2.792-3.668a.647.647,0,0,1-.065-.68.648.648,0,0,1,.58-.36h.874l-3.207-4.38a.647.647,0,0,1-.055-.675.647.647,0,0,1,.577-.355h.739l-2.072-2.83-2.072,2.83h.739a.647.647,0,0,1,.577.355.648.648,0,0,1-.055.675l-3.207,4.38h.874a.648.648,0,0,1,.577.355.647.647,0,0,1-.055.675l-3.021,4.127Z" transform="translate(186.104 257.03)"/>
          </g>
          <g id="g125" transform="translate(20.791 33.274)">
            <path id="path127" d="M-133.737-126.2a.644.644,0,0,1-.337-.1.647.647,0,0,1-.214-.89l1.754-2.868h-.281a.647.647,0,0,1-.565-.331.647.647,0,0,1,.012-.654l3.534-5.778a.647.647,0,0,1,.552-.31.647.647,0,0,1,.552.31l3.534,5.778a.647.647,0,0,1,.012.654.647.647,0,0,1-.565.331h-.281l.9,1.468a.647.647,0,0,1-.215.89.647.647,0,0,1-.89-.215l-1.5-2.453a.647.647,0,0,1-.012-.654.647.647,0,0,1,.565-.331h.281l-2.379-3.889-2.379,3.889h.281a.647.647,0,0,1,.565.331.647.647,0,0,1-.012.654l-2.357,3.853A.647.647,0,0,1-133.737-126.2Z" transform="translate(134.384 137.122)"/>
          </g>
          <g id="g129" transform="translate(0 35.398)">
            <path id="path131" d="M-61.012-1.2a.644.644,0,0,1-.382-.125.647.647,0,0,1-.14-.9l3.646-4.981h-.874a.647.647,0,0,1-.577-.355.647.647,0,0,1,.055-.675l1.1-1.5a.647.647,0,0,1,.9-.14.647.647,0,0,1,.14.9l-.341.466h.874a.647.647,0,0,1,.577.355.647.647,0,0,1-.055.675l-4.4,6.011A.647.647,0,0,1-61.012-1.2Z" transform="translate(61.659 10.001)"/>
          </g>
          <g id="g133" transform="translate(4.195 26.911)">
            <path id="path135" d="M-166.67-239.741a.647.647,0,0,1-.523-.265l-4.4-6.011a.647.647,0,0,1-.055-.675.647.647,0,0,1,.577-.355h.874l-3.207-4.381a.647.647,0,0,1-.055-.675.647.647,0,0,1,.577-.355h.739l-2.072-2.83-2.072,2.83h.739a.647.647,0,0,1,.577.355.647.647,0,0,1-.055.675l-1.31,1.79a.647.647,0,0,1-.9.14.647.647,0,0,1-.14-.9l.556-.76h-.739a.647.647,0,0,1-.577-.355.647.647,0,0,1,.055-.675l3.348-4.573a.647.647,0,0,1,.522-.265.647.647,0,0,1,.522.265l3.348,4.573a.647.647,0,0,1,.055.675.647.647,0,0,1-.577.355h-.739l3.207,4.381a.647.647,0,0,1,.055.675.647.647,0,0,1-.577.355h-.874l3.646,4.981a.647.647,0,0,1-.14.9A.644.644,0,0,1-166.67-239.741Z" transform="translate(178.209 257.03)"/>
          </g>
          <g id="g137" transform="translate(38.341 31.475)">
            <path id="path139" d="M-4.789-8.705H-9.353A.647.647,0,0,1-10-9.353.647.647,0,0,1-9.353-10h4.563a.647.647,0,0,1,.647.647A.647.647,0,0,1-4.789-8.705Z" transform="translate(10 10)"/>
          </g>
          <g id="g141" transform="translate(32.047 15.481)">
            <path id="path143" d="M-177.057-105.815a.644.644,0,0,1-.382-.125.647.647,0,0,1-.14-.9l3.646-4.981h-.874a.648.648,0,0,1-.577-.355.647.647,0,0,1,.055-.675l3.207-4.38h-.739a.647.647,0,0,1-.577-.355.647.647,0,0,1,.055-.675l3.348-4.573a.647.647,0,0,1,.522-.265.647.647,0,0,1,.522.265l3.142,4.292a.647.647,0,0,1,.125.382v.282a.647.647,0,0,1-.647.647h-.544l1.243,1.724a.647.647,0,0,1-.147.9.647.647,0,0,1-.9-.146l-1.983-2.75a.647.647,0,0,1-.051-.674.647.647,0,0,1,.576-.352h.739l-2.072-2.83-2.072,2.83h.739a.647.647,0,0,1,.577.355.647.647,0,0,1-.055.675l-3.207,4.381h.874a.647.647,0,0,1,.577.355.647.647,0,0,1-.055.675l-4.4,6.011A.647.647,0,0,1-177.057-105.815Z" transform="translate(177.704 123.104)"/>
          </g>
          <g id="g145" transform="translate(27.819 26.911)">
            <path id="path147" d="M-227.266-239.741a.646.646,0,0,1-.523-.265l-4.4-6.011a.647.647,0,0,1-.055-.675.647.647,0,0,1,.577-.355h.874L-234-251.427a.647.647,0,0,1-.055-.675.647.647,0,0,1,.577-.355h.739l-2.072-2.83-2.072,2.83h.739a.647.647,0,0,1,.577.355.648.648,0,0,1-.055.675l-3.207,4.38h.874a.647.647,0,0,1,.577.355.648.648,0,0,1-.055.675l-4.4,6.011a.647.647,0,0,1-.9.14.647.647,0,0,1-.14-.9l3.646-4.981h-.874a.647.647,0,0,1-.577-.355.647.647,0,0,1,.055-.675l3.207-4.38h-.739a.647.647,0,0,1-.577-.355.648.648,0,0,1,.055-.675l3.348-4.573a.647.647,0,0,1,.522-.265.647.647,0,0,1,.522.265l3.348,4.573a.647.647,0,0,1,.055.675.647.647,0,0,1-.577.355h-.739l3.207,4.381a.647.647,0,0,1,.055.675.647.647,0,0,1-.577.355h-.874l3.646,4.981a.647.647,0,0,1-.14.9A.644.644,0,0,1-227.266-239.741Z" transform="translate(243 257.03)"/>
          </g>
          <g id="g149" transform="translate(0 8.88)">
            <path id="path151" d="M-112.593-99.338h-5.372a2.425,2.425,0,0,1-2.423-2.423,2.426,2.426,0,0,1,2.052-2.394,3.078,3.078,0,0,1,3.057-2.752,3.078,3.078,0,0,1,3.057,2.752,2.426,2.426,0,0,1,2.052,2.394A2.425,2.425,0,0,1-112.593-99.338Zm-5.372-3.55a1.129,1.129,0,0,0-1.128,1.128,1.129,1.129,0,0,0,1.128,1.128h5.372a1.129,1.129,0,0,0,1.128-1.128,1.129,1.129,0,0,0-1.128-1.128,1.134,1.134,0,0,0-.179.014.647.647,0,0,1-.554-.175.647.647,0,0,1-.191-.549,1.8,1.8,0,0,0,.016-.236,1.781,1.781,0,0,0-1.779-1.779,1.781,1.781,0,0,0-1.779,1.779,1.79,1.79,0,0,0,.016.235.647.647,0,0,1-.19.549.647.647,0,0,1-.554.175A1.135,1.135,0,0,0-117.965-102.889Z" transform="translate(120.388 106.908)"/>
          </g>
          <g id="g153" transform="translate(22.274 2.59)">
            <path id="path155" d="M-112.593-99.338h-5.372a2.425,2.425,0,0,1-2.423-2.423,2.426,2.426,0,0,1,2.052-2.394,3.078,3.078,0,0,1,3.057-2.752,3.078,3.078,0,0,1,3.057,2.752,2.426,2.426,0,0,1,2.052,2.394A2.425,2.425,0,0,1-112.593-99.338Zm-5.372-3.55a1.129,1.129,0,0,0-1.128,1.128,1.129,1.129,0,0,0,1.128,1.128h5.372a1.129,1.129,0,0,0,1.128-1.128,1.129,1.129,0,0,0-1.128-1.128,1.145,1.145,0,0,0-.18.014.648.648,0,0,1-.553-.176.647.647,0,0,1-.19-.548,1.8,1.8,0,0,0,.016-.236,1.781,1.781,0,0,0-1.779-1.779,1.781,1.781,0,0,0-1.779,1.779,1.788,1.788,0,0,0,.016.235.647.647,0,0,1-.19.549.647.647,0,0,1-.554.176A1.146,1.146,0,0,0-117.965-102.889Z" transform="translate(120.388 106.908)"/>
          </g>
          <g id="g157" transform="translate(7.543 0)">
            <path id="path159" d="M-34.631-31.293H-40a2.425,2.425,0,0,1-2.423-2.423,2.426,2.426,0,0,1,2.052-2.394,3.073,3.073,0,0,1,.065-.384.647.647,0,0,1,.778-.482.647.647,0,0,1,.482.778,1.792,1.792,0,0,0-.047.409,1.8,1.8,0,0,0,.016.236A.647.647,0,0,1-39.27-35a.647.647,0,0,1-.554.175A1.133,1.133,0,0,0-40-34.844a1.129,1.129,0,0,0-1.128,1.128A1.129,1.129,0,0,0-40-32.588h5.372A1.129,1.129,0,0,0-33.5-33.716a1.129,1.129,0,0,0-1.128-1.128,1.133,1.133,0,0,0-.179.014A.647.647,0,0,1-35.364-35a.647.647,0,0,1-.19-.549,1.8,1.8,0,0,0,.016-.236,1.781,1.781,0,0,0-1.779-1.779,1.8,1.8,0,0,0-.4.045.647.647,0,0,1-.776-.486.647.647,0,0,1,.486-.776,3.094,3.094,0,0,1,.69-.078A3.078,3.078,0,0,1-34.26-36.11a2.426,2.426,0,0,1,2.052,2.394A2.425,2.425,0,0,1-34.631-31.293Z" transform="translate(42.425 38.863)"/>
          </g>
        </g>
      </g>
    </g>
  </g>
</svg>
