<svg xmlns="http://www.w3.org/2000/svg" xmlns:xlink="http://www.w3.org/1999/xlink" width="118" height="118" viewBox="0 0 118 118">
  <defs>
    <filter id="Elipse_12115" x="0" y="0" width="118" height="118" filterUnits="userSpaceOnUse">
      <feOffset dy="3" input="SourceAlpha"/>
      <feGaussianBlur stdDeviation="3" result="blur"/>
      <feFlood flood-opacity="0.161"/>
      <feComposite operator="in" in2="blur"/>
      <feComposite in="SourceGraphic"/>
    </filter>
    <clipPath id="clip-path">
      <path id="path4029" d="M0-682.665H65.086v65.086H0Z" transform="translate(0 682.665)"/>
    </clipPath>
  </defs>
  <g id="Grupo_1193558" data-name="Grupo 1193558" transform="translate(-3037 10071)">
    <g id="Grupo_1189595" data-name="Grupo 1189595" transform="translate(2237.219 -12614)">
      <g transform="matrix(1, 0, 0, 1, 799.78, 2543)" filter="url(#Elipse_12115)">
        <g id="Elipse_12115-2" data-name="Elipse 12115" transform="translate(9 6)" fill="#fbe0aa" stroke="#ab7c1f" stroke-width="2">
          <circle cx="50" cy="50" r="50" stroke="none"/>
          <circle cx="50" cy="50" r="49" fill="none"/>
        </g>
      </g>
    </g>
    <g id="g4023" transform="translate(3065 -9365.335)">
      <g id="g4025" transform="translate(0 -682.665)">
        <g id="g4027" clip-path="url(#clip-path)">
          <g id="g4033" transform="translate(0.953 24.239)">
            <path id="path4035" d="M-599.486-109.018c-6.141-8.654-16.093-11.881-24.451-7.928-2.917,1.38-5.737,3.576-8.826,3.568-4.315-.01-7.93-4.26-12.019-6.132-6.494-2.973-14.322.9-17.882,8.857v21.07h63.179Z" transform="translate(662.665 120.508)" fill="#68b181"/>
          </g>
          <g id="g4037" transform="translate(0 23.292)">
            <path id="path4039" d="M-608.534-117.049a.952.952,0,0,1-.778-.4c-5.918-8.339-15.268-11.4-23.266-7.618-.76.36-1.54.791-2.295,1.209-2.177,1.2-4.429,2.451-6.924,2.451h-.018c-3.042-.007-5.678-1.85-8.227-3.632a28.224,28.224,0,0,0-4.187-2.587,10.3,10.3,0,0,0-8.075-.18,15.894,15.894,0,0,0-8.54,8.56.953.953,0,0,1-1.26.481.953.953,0,0,1-.481-1.26,17.8,17.8,0,0,1,9.608-9.565,12.327,12.327,0,0,1,9.541.231,29.606,29.606,0,0,1,4.486,2.758c2.414,1.688,4.695,3.282,7.139,3.288,2.008,0,3.953-1.072,6.013-2.213.781-.432,1.588-.879,2.4-1.264,8.724-4.126,19.266-.739,25.636,8.238a.954.954,0,0,1-.226,1.329A.949.949,0,0,1-608.534-117.049Z" transform="translate(672.668 130.439)"/>
          </g>
          <path id="path4041" d="M566.341-238.876h3.651v-9.074h-3.651Z" transform="translate(-512.346 289.396)" fill="#8c818f"/>
          <path id="path4041_-_Contorno" data-name="path4041 - Contorno" d="M560.945-246.97h-3.651a.953.953,0,0,1-.953-.953V-257a.953.953,0,0,1,.953-.953h3.651a.953.953,0,0,1,.953.953v9.074A.953.953,0,0,1,560.945-246.97Zm-2.7-1.907h1.744v-7.167h-1.744Z" transform="translate(-503.299 298.443)"/>
          <g id="g4043" transform="translate(49.827 20.937)">
            <path id="path4045" d="M-108.445-194.6a.617.617,0,0,0,.562-.676c-.321-11.148-2.882-19.833-6-19.833s-5.675,8.685-6,19.833a.617.617,0,0,0,.562.676Z" transform="translate(119.874 215.11)" fill="#bce097"/>
          </g>
          <g id="g4047" transform="translate(54.099 20.937)">
            <path id="path4049" d="M-16.355,0a2.389,2.389,0,0,0-1.724.922c2.292,2.514,4.012,9.909,4.271,18.911a.617.617,0,0,1-.562.676h3.448a.617.617,0,0,0,.562-.676C-10.68,8.686-13.242,0-16.355,0" transform="translate(18.079)" fill="#9cd169"/>
          </g>
          <g id="g4051" transform="translate(48.873 19.984)">
            <path id="path4053" d="M-117.491-202.694h-10.867a1.464,1.464,0,0,1-1.056-.453,1.664,1.664,0,0,1-.459-1.2c.288-10,2.585-20.759,6.948-20.759s6.661,10.761,6.948,20.759a1.664,1.664,0,0,1-.459,1.2A1.464,1.464,0,0,1-117.491-202.694Zm-10.466-1.907h10.066c-.388-11.982-3.21-18.6-5.033-18.6S-127.569-216.583-127.957-204.6Z" transform="translate(129.874 225.11)"/>
          </g>
          <path id="path4055" d="M413.035-261.348h4.2v-11.06h-4.2Z" transform="translate(-373.656 311.522)" fill="#ffeed2"/>
          <path id="path4055_-_Contorno" data-name="path4055 - Contorno" d="M408.193-269.441h-4.2a.953.953,0,0,1-.953-.953v-11.06a.953.953,0,0,1,.953-.953h4.2a.953.953,0,0,1,.953.953v11.06A.953.953,0,0,1,408.193-269.441Zm-3.251-1.907h2.3V-280.5h-2.3Z" transform="translate(-364.609 320.568)"/>
          <g id="g4057" transform="translate(35.607 10.409)">
            <path id="path4059" d="M0-260.831v-21.615a5.874,5.874,0,0,1,5.874-5.874,5.874,5.874,0,0,1,5.874,5.874v21.615a1.217,1.217,0,0,1-1.217,1.217H1.217A1.217,1.217,0,0,1,0-260.831" transform="translate(0 288.319)" fill="#acd980"/>
          </g>
          <g id="g4061" transform="translate(39.811 10.409)">
            <path id="path4063" d="M-15.845,0a5.873,5.873,0,0,0-1.67.242,5.876,5.876,0,0,1,4.2,5.632V27.489a1.217,1.217,0,0,1-1.217,1.217h3.34a1.217,1.217,0,0,0,1.217-1.217V5.874A5.874,5.874,0,0,0-15.845,0" transform="translate(17.515)" fill="#8cc951"/>
          </g>
          <g id="g4065" transform="translate(34.654 9.456)">
            <path id="path4067" d="M-47.662,19.351h-9.315a2.173,2.173,0,0,1-2.17-2.17V-4.434a6.8,6.8,0,0,1,1.117-3.744.953.953,0,0,1,1.32-.273.953.953,0,0,1,.273,1.32,4.9,4.9,0,0,0-.8,2.7V17.181a.264.264,0,0,0,.263.263h9.315a.264.264,0,0,0,.263-.263V-4.434a4.926,4.926,0,0,0-4.921-4.921,4.965,4.965,0,0,0-1,.1A.953.953,0,0,1-54.441-10a.953.953,0,0,1,.742-1.126,6.875,6.875,0,0,1,1.38-.14,6.835,6.835,0,0,1,6.828,6.828V17.181A2.173,2.173,0,0,1-47.662,19.351Z" transform="translate(59.147 11.261)"/>
          </g>
          <g id="g4069" transform="translate(38.137 17.536)">
            <path id="path4071" d="M-9.049-14.642a.949.949,0,0,1-.477-.128.953.953,0,0,1-.347-1.3,2.342,2.342,0,0,1,2.02-1.166,2.317,2.317,0,0,1,1.65.684,2.343,2.343,0,0,1,.37.482.953.953,0,0,1-.347,1.3.953.953,0,0,1-1.3-.347.437.437,0,0,0-.069-.09.424.424,0,0,0-.3-.125.424.424,0,0,0-.37.214A.953.953,0,0,1-9.049-14.642Z" transform="translate(10.002 17.239)"/>
          </g>
          <g id="g4073" transform="translate(41.158 28.067)">
            <path id="path4075" d="M-9.049-14.642a.949.949,0,0,1-.477-.128.953.953,0,0,1-.347-1.3,2.342,2.342,0,0,1,2.02-1.166,2.317,2.317,0,0,1,1.65.684,2.343,2.343,0,0,1,.37.482.953.953,0,0,1-.347,1.3.953.953,0,0,1-1.3-.347.437.437,0,0,0-.069-.09.424.424,0,0,0-.3-.125.424.424,0,0,0-.37.214A.953.953,0,0,1-9.049-14.642Z" transform="translate(10.002 17.239)"/>
          </g>
          <g id="g4077" transform="translate(0 54.21)">
            <path id="path4079" d="M54.133-8.093H-9.047A.953.953,0,0,1-10-9.047.953.953,0,0,1-9.047-10H54.133a.953.953,0,0,1,.953.953A.953.953,0,0,1,54.133-8.093Z" transform="translate(10 10)"/>
          </g>
          <g id="g4081" transform="translate(24.824 17.251)">
            <path id="path4083" d="M-145.457-207.833a.588.588,0,0,1-.068-.905c.992-.942,1.321-1.562,1.147-2.559a3.368,3.368,0,0,0-2.335-2.671.683.683,0,0,1-.444-.913c.844-2.122.241-4.6-.737-5.153a1.46,1.46,0,0,1-.739-1.308c.045-1.524-.52-2.7-1.119-2.894a1.445,1.445,0,0,1-.939-1.169c-.405-2.614-1.091-4.332-1.869-4.332s-1.464,1.718-1.869,4.332a1.445,1.445,0,0,1-.939,1.169c-.6.2-1.165,1.37-1.119,2.894a1.461,1.461,0,0,1-.739,1.308c-.978.555-1.58,3.03-.737,5.153a.683.683,0,0,1-.444.913,3.368,3.368,0,0,0-2.335,2.671c-.174,1,.154,1.616,1.147,2.559a.588.588,0,0,1-.068.905,1.758,1.758,0,0,0-.879,1.351c0,1.635,3.574,2.96,7.982,2.96s7.982-1.325,7.982-2.96a1.758,1.758,0,0,0-.879-1.351" transform="translate(160.787 229.737)" fill="#acd980"/>
          </g>
          <g id="g4085" transform="translate(31.655 17.251)">
            <path id="path4087" d="M-80.642-207.833a.588.588,0,0,1-.068-.905c.992-.942,1.321-1.562,1.147-2.559a3.368,3.368,0,0,0-2.335-2.671.683.683,0,0,1-.444-.913c.844-2.122.241-4.6-.737-5.153a1.461,1.461,0,0,1-.739-1.308c.045-1.524-.52-2.7-1.119-2.894a1.445,1.445,0,0,1-.939-1.169c-.405-2.614-1.091-4.332-1.869-4.332-.527,0-1.012.79-1.4,2.113a17.967,17.967,0,0,1,.473,2.22,1.445,1.445,0,0,0,.939,1.169c.6.2,1.165,1.37,1.119,2.894a1.46,1.46,0,0,0,.739,1.308c.978.555,1.58,3.03.737,5.153a.683.683,0,0,0,.444.913,3.368,3.368,0,0,1,2.335,2.671c.174,1-.154,1.616-1.147,2.559a.588.588,0,0,0,.068.905,1.758,1.758,0,0,1,.88,1.351c0,1.458-2.844,2.669-6.587,2.914.453.03.919.046,1.4.046,4.408,0,7.982-1.325,7.982-2.96a1.758,1.758,0,0,0-.879-1.351" transform="translate(89.141 229.737)" fill="#8cc951"/>
          </g>
          <g id="g4089" transform="translate(32.098 24.794)">
            <path id="path4091" d="M-9.047-225.72a.953.953,0,0,1-.953-.953v-22.935a.953.953,0,0,1,.953-.953.953.953,0,0,1,.953.953v22.935A.953.953,0,0,1-9.047-225.72Z" transform="translate(10 250.562)"/>
          </g>
          <g id="g4093" transform="translate(23.871 16.298)">
            <path id="path4095" d="M-161.6-211.616c-4.441,0-8.936-1.344-8.936-3.913a2.454,2.454,0,0,1,.944-1.86,3.3,3.3,0,0,1-1.129-3.118,4.37,4.37,0,0,1,2.734-3.333c-.806-2.34-.232-5.227,1.25-6.068a.509.509,0,0,0,.257-.451c-.056-1.889.673-3.463,1.773-3.827a.5.5,0,0,0,.3-.41c.536-3.458,1.456-5.14,2.811-5.14s2.275,1.681,2.811,5.14a.5.5,0,0,0,.3.41c1.1.364,1.829,1.937,1.773,3.827a.509.509,0,0,0,.257.451c1.482.842,2.056,3.729,1.25,6.068a4.369,4.369,0,0,1,2.733,3.333,3.3,3.3,0,0,1-1.129,3.118,2.454,2.454,0,0,1,.944,1.86C-152.666-212.96-157.161-211.616-161.6-211.616Zm0-26.016a10.235,10.235,0,0,0-.927,3.327,2.383,2.383,0,0,1-1.582,1.928,3.046,3.046,0,0,0-.466,1.96,2.4,2.4,0,0,1-1.221,2.166c-.4.226-1.068,2.095-.322,3.971a1.647,1.647,0,0,1-.051,1.332,1.636,1.636,0,0,1-1.016.849,2.421,2.421,0,0,0-1.659,1.918c-.092.526-.038.846.864,1.7a1.531,1.531,0,0,1,.475,1.217,1.546,1.546,0,0,1-.642,1.153c-.357.257-.484.472-.484.577,0,.582,2.463,2.006,7.029,2.006s7.029-1.424,7.029-2.006c0-.105-.127-.32-.483-.577a1.546,1.546,0,0,1-.642-1.153,1.531,1.531,0,0,1,.475-1.217c.9-.857.956-1.177.864-1.7a2.42,2.42,0,0,0-1.659-1.918,1.636,1.636,0,0,1-1.016-.849,1.647,1.647,0,0,1-.051-1.332c.746-1.877.077-3.745-.322-3.972a2.4,2.4,0,0,1-1.221-2.166,2.786,2.786,0,0,0-.513-1.982,2.351,2.351,0,0,1-1.535-1.907A10.24,10.24,0,0,0-161.6-237.632Z" transform="translate(170.781 239.737)"/>
          </g>
          <g id="g4097" transform="translate(32.098 37.398)">
            <path id="path4099" d="M-9.047-34.147a.95.95,0,0,1-.674-.279.953.953,0,0,1,0-1.348l2.746-2.746a.953.953,0,0,1,1.348,0,.953.953,0,0,1,0,1.348l-2.746,2.746A.95.95,0,0,1-9.047-34.147Z" transform="translate(10 38.8)"/>
          </g>
          <g id="g4101" transform="translate(32.098 28.906)">
            <path id="path4103" d="M-9.047-28.35a.95.95,0,0,1-.674-.279.953.953,0,0,1,0-1.348l2.135-2.135a.953.953,0,0,1,1.348,0,.953.953,0,0,1,0,1.348l-2.135,2.135A.95.95,0,0,1-9.047-28.35Z" transform="translate(10 32.392)"/>
          </g>
          <g id="g4105" transform="translate(29.971 32.99)">
            <path id="path4107" d="M-29.226-28.273a.95.95,0,0,1-.674-.279l-2.127-2.127a.953.953,0,0,1,0-1.348.953.953,0,0,1,1.348,0l2.127,2.127a.953.953,0,0,1,0,1.348A.95.95,0,0,1-29.226-28.273Z" transform="translate(32.307 32.307)"/>
          </g>
          <g id="g4109" transform="translate(12.15 45.285)">
            <path id="path4111" d="M-493.242-93.735v-8.724c-10.252-1.19-20.666-1.85-30.835-.01a51.41,51.41,0,0,0-21.147,8.734Z" transform="translate(545.224 103.614)" fill="#cf9875"/>
          </g>
          <g id="g4113" transform="translate(47.927 45.29)">
            <path id="path4115" d="M-143.181-93.689h1.116v-8.724a152.775,152.775,0,0,0-16.206-1.15c8.069,1.313,17.615,4.828,15.09,9.874" transform="translate(158.27 103.562)" fill="#c7865b"/>
          </g>
          <g id="g4117" transform="translate(11.197 44.336)">
            <path id="path4119" d="M-502.289-10.285h-51.982a.953.953,0,0,1-.906-.658.953.953,0,0,1,.345-1.066,52.523,52.523,0,0,1,21.539-8.9c10.711-1.938,21.739-1.087,31.115,0a.953.953,0,0,1,.837,1.057.953.953,0,0,1-1.057.837c-9.237-1.072-20.09-1.912-30.556-.019a51.94,51.94,0,0,0-18.2,6.843h48.866a.953.953,0,0,1,.953.953A.953.953,0,0,1-502.289-10.285Z" transform="translate(555.225 22.067)"/>
          </g>
          <path id="path4121" d="M96.469-257.944h3.755V-271.47H96.469Z" transform="translate(-87.272 310.674)" fill="#cf9875"/>
          <path id="path4121_-_Contorno" data-name="path4121 - Contorno" d="M91.177-266.037H87.423a.953.953,0,0,1-.953-.953v-13.526a.953.953,0,0,1,.953-.953h3.755a.953.953,0,0,1,.953.953v13.526A.953.953,0,0,1,91.177-266.037Zm-2.8-1.907h1.848v-11.619H88.376Z" transform="translate(-78.225 319.72)"/>
          <g id="g4123" transform="translate(3.602 9.922)">
            <path id="path4125" d="M-130.429-277.842h-12.547a1.15,1.15,0,0,1-1.2-1.127c.3-11.554,2.782-21.611,6.424-27.59a1.255,1.255,0,0,1,2.1,0c3.642,5.979,6.126,16.036,6.424,27.59a1.151,1.151,0,0,1-1.2,1.127" transform="translate(144.175 307.123)" fill="#acd980"/>
          </g>
          <g id="g4127" transform="translate(9.274 9.922)">
            <path id="path4129" d="M-27.036-5.36a1.255,1.255,0,0,0-2.1,0c-.257.422-.508.867-.753,1.329,3.228,6.08,5.394,15.523,5.671,26.261a1.151,1.151,0,0,1-1.2,1.127h3.6a1.151,1.151,0,0,0,1.2-1.127c-.3-11.554-2.782-21.611-6.424-27.59" transform="translate(29.885 5.925)" fill="#8cc951"/>
          </g>
          <g id="g4131" transform="translate(2.649 8.969)">
            <path id="path4133" d="M-150.845-244.995h-12.547a2.209,2.209,0,0,1-1.577-.655,1.991,1.991,0,0,1-.575-1.449c.3-11.471,2.688-21.7,6.563-28.061a2.154,2.154,0,0,1,1.862-1.022,2.154,2.154,0,0,1,1.862,1.022c2.982,4.9,5.14,12.281,6.076,20.793a.953.953,0,0,1-.844,1.052.953.953,0,0,1-1.052-.844c-.906-8.241-2.969-15.347-5.809-20.009a.278.278,0,0,0-.234-.107.278.278,0,0,0-.234.107c-3.653,6-6,16.134-6.285,27.119a.266.266,0,0,0,.246.149h12.547a.289.289,0,0,0,.211-.079c.011-1-.027-1.911-.079-2.816a.953.953,0,0,1,.9-1.006.953.953,0,0,1,1.006.9q.079,1.387.116,2.806a1.991,1.991,0,0,1-.575,1.449A2.209,2.209,0,0,1-150.845-244.995Z" transform="translate(165.545 276.183)"/>
          </g>
          <g id="g4135" transform="translate(2.824 44.211)">
            <path id="path4137" d="M-33.236-103.923h18.812c2.392-1.074,3.909-3.018,3.407-4.41-.458-1.27-2.443-1.652-4.637-.982a.253.253,0,0,1-.308-.342,3.241,3.241,0,0,0-.014-3.194c-.972-1.346-3.323-1.14-5.374.419a.254.254,0,0,1-.4-.126c-.452-1.4-1.216-2.317-2.083-2.317s-1.631.919-2.083,2.317a.254.254,0,0,1-.4.126c-2.051-1.559-4.4-1.765-5.374-.419a3.241,3.241,0,0,0-.014,3.194.253.253,0,0,1-.308.342c-2.194-.67-4.179-.288-4.637.982-.5,1.392,1.014,3.336,3.407,4.41" transform="translate(36.739 114.876)" fill="#acd980"/>
          </g>
          <g id="g4139" transform="translate(1.873 43.258)">
            <path id="path4141" d="M-23.454-112.017H-42.265a.953.953,0,0,1-.39-.084c-2.911-1.307-4.594-3.716-3.913-5.6.438-1.214,1.744-1.938,3.5-1.938a7.229,7.229,0,0,1,1.076.083,3.643,3.643,0,0,1,.512-2.9,3.27,3.27,0,0,1,2.75-1.288,6.328,6.328,0,0,1,3.219.992,3.1,3.1,0,0,1,2.657-2.123,3.1,3.1,0,0,1,2.657,2.123,6.328,6.328,0,0,1,3.219-.992,3.27,3.27,0,0,1,2.75,1.288,3.642,3.642,0,0,1,.512,2.9,7.229,7.229,0,0,1,1.076-.083c1.752,0,3.059.724,3.5,1.938.68,1.888-1,4.3-3.913,5.6A.953.953,0,0,1-23.454-112.017Zm-18.6-1.907h18.392c2.039-.975,2.961-2.465,2.72-3.134-.148-.412-.817-.678-1.7-.678a6.147,6.147,0,0,0-1.76.284,1.544,1.544,0,0,1-.355.053,1.2,1.2,0,0,1-1.012-.55,1.2,1.2,0,0,1-.093-1.142,2.372,2.372,0,0,0,.085-2.251,1.443,1.443,0,0,0-1.2-.5,4.939,4.939,0,0,0-2.82,1.117,1.2,1.2,0,0,1-.729.246,1.206,1.206,0,0,1-1.15-.838c-.39-1.207-.928-1.657-1.176-1.657s-.786.45-1.176,1.656a1.206,1.206,0,0,1-1.15.838,1.2,1.2,0,0,1-.729-.246,4.939,4.939,0,0,0-2.82-1.117,1.443,1.443,0,0,0-1.2.5,2.372,2.372,0,0,0,.085,2.251,1.2,1.2,0,0,1-.093,1.142,1.2,1.2,0,0,1-1.012.55,1.544,1.544,0,0,1-.355-.053,6.147,6.147,0,0,0-1.76-.284c-.886,0-1.554.266-1.7.678C-45.016-116.388-44.095-114.9-42.055-113.923Z" transform="translate(46.72 124.876)"/>
          </g>
        </g>
      </g>
    </g>
  </g>
</svg>
