<svg xmlns="http://www.w3.org/2000/svg" width="72" height="72" viewBox="0 0 72 72">
  <g id="Grupo_1193726" data-name="Grupo 1193726" transform="translate(-607 -3839)">
    <g id="Grupo_1193721" data-name="Grupo 1193721" transform="translate(188 2718)">
      <path id="Trazado_824488" data-name="Trazado 824488" d="M36,0A36,36,0,1,1,0,36,36,36,0,0,1,36,0Z" transform="translate(419 1121)" fill="#f6b32f"/>
    </g>
    <g id="filled_outline" data-name="filled outline" transform="translate(613 3838)">
      <path id="Trazado_1246818" data-name="Trazado 1246818" d="M319.855,26.142h-.714a2.142,2.142,0,0,0-4.285,0h-.714a2.142,2.142,0,0,0,0,4.285h5.713a2.142,2.142,0,1,0,0-4.285Z" transform="translate(-276.863 -7.285)" fill="#dbdbdb"/>
      <path id="Trazado_1246819" data-name="Trazado 1246819" d="M384.714,422.427a.714.714,0,0,1-.714-.714v-5a.714.714,0,0,1,1.428,0v5A.714.714,0,0,1,384.714,422.427Z" transform="translate(-342.436 -364.293)" fill="#744630"/>
      <path id="Trazado_1246820" data-name="Trazado 1246820" d="M313.139,191a2.857,2.857,0,0,0-2.857-2.857h-.714a2.857,2.857,0,1,0,0-5.713h-.208a5,5,0,1,0-9.582,0h-.208a2.857,2.857,0,0,0,0,5.713h-.714a2.857,2.857,0,0,0,0,5.713,2.857,2.857,0,0,0,0,5.713h11.426a2.857,2.857,0,1,0,0-5.713A2.857,2.857,0,0,0,313.139,191Z" transform="translate(-262.291 -145.724)" fill="#d1763e"/>
      <path id="Trazado_1246821" data-name="Trazado 1246821" d="M72,432h1.428v5H72Z" transform="translate(-58.287 -378.865)" fill="#744630"/>
      <path id="Trazado_1246822" data-name="Trazado 1246822" d="M168,432h1.428v5H168Z" transform="translate(-145.717 -378.865)" fill="#bd9070"/>
      <path id="Trazado_1246823" data-name="Trazado 1246823" d="M249.139,191a2.857,2.857,0,0,0-2.857-2.857h-.714a2.857,2.857,0,0,0,0-5.713h-.208a5,5,0,1,0-9.582,0h-.208a2.857,2.857,0,0,0,0,5.713h-.714a2.857,2.857,0,0,0,0,5.713,2.857,2.857,0,0,0,0,5.713h11.426a2.857,2.857,0,1,0,0-5.713A2.857,2.857,0,0,0,249.139,191Z" transform="translate(-204.004 -145.724)" fill="#aac16b"/>
      <path id="Trazado_1246824" data-name="Trazado 1246824" d="M288.411,226.98a.714.714,0,0,0-1-.111L285,228.8V216.714a.714.714,0,0,0-1.428,0v6.37l-2.41-1.928a.714.714,0,1,0-.893,1.115l3.3,2.642v14.653a.714.714,0,1,0,1.428,0v-8.941l3.3-2.642A.714.714,0,0,0,288.411,226.98Z" transform="translate(-247.718 -182.146)" fill="#a45e14"/>
      <path id="Trazado_1246825" data-name="Trazado 1246825" d="M31.855,66.142h-.714a2.142,2.142,0,1,0-4.285,0h-.714a2.142,2.142,0,1,0,0,4.285h5.713a2.142,2.142,0,1,0,0-4.285Z" transform="translate(-14.572 -43.715)" fill="#ebebeb"/>
      <path id="Trazado_1246826" data-name="Trazado 1246826" d="M383.856,50.142h-.714a2.142,2.142,0,0,0-4.285,0h-.714a2.142,2.142,0,1,0,0,4.285h5.713a2.142,2.142,0,0,0,0-4.285Z" transform="translate(-335.15 -29.143)" fill="#ebebeb"/>
      <g id="Grupo_1193725" data-name="Grupo 1193725" transform="translate(19.426 18.143)">
        <path id="Trazado_1246827" data-name="Trazado 1246827" d="M208,40h1.428v2.142H208Z" transform="translate(-201.573 -40)" fill="#fbb540"/>
        <path id="Trazado_1246828" data-name="Trazado 1246828" d="M0,0H1.428V2.142H0Z" transform="translate(1.585 2.598) rotate(-45)" fill="#fbb540"/>
        <path id="Trazado_1246829" data-name="Trazado 1246829" d="M136,112h2.142v1.428H136Z" transform="translate(-136 -105.573)" fill="#fbb540"/>
        <path id="Trazado_1246830" data-name="Trazado 1246830" d="M0,0H2.142V1.428H0Z" transform="translate(1.584 11.686) rotate(-45)" fill="#fbb540"/>
        <path id="Trazado_1246831" data-name="Trazado 1246831" d="M208,176h1.428v2.142H208Z" transform="translate(-201.573 -163.86)" fill="#fbb540"/>
        <path id="Trazado_1246832" data-name="Trazado 1246832" d="M0,0H1.428V2.142H0Z" transform="translate(10.167 11.182) rotate(-45)" fill="#fbb540"/>
        <path id="Trazado_1246833" data-name="Trazado 1246833" d="M272,112h2.142v1.428H272Z" transform="translate(-259.86 -105.573)" fill="#fbb540"/>
        <path id="Trazado_1246834" data-name="Trazado 1246834" d="M0,0H2.142V1.428H0Z" transform="translate(10.168 3.103) rotate(-45)" fill="#fbb540"/>
        <circle id="Elipse_12403" data-name="Elipse 12403" cx="3" cy="3" r="3" transform="translate(4.36 4.282)" fill="#fbb540"/>
      </g>
      <path id="Trazado_1246835" data-name="Trazado 1246835" d="M50.848,480.471h0l-42.134-.094a.714.714,0,0,1,0-1.428l42.134.094a.714.714,0,1,1,0,1.428Z" transform="translate(0 -421.622)" fill="#5e8569"/>
      <path id="Trazado_1246836" data-name="Trazado 1246836" d="M34,279.711l-.546-.546a9.566,9.566,0,0,1-2.311-3.739h2.142l-.263-.176a6.582,6.582,0,0,1-2.593-3.4H32.57l-.143-.179A16.678,16.678,0,0,1,29,264a16.678,16.678,0,0,1-3.428,7.677l-.143.179h2.142a6.582,6.582,0,0,1-2.593,3.4l-.263.176h2.142a9.567,9.567,0,0,1-2.311,3.739l-.546.546Z" transform="translate(-14.572 -225.861)" fill="#aac16b"/>
      <path id="Trazado_1246837" data-name="Trazado 1246837" d="M130,279.711l-.546-.546a9.566,9.566,0,0,1-2.311-3.739h2.142l-.263-.176a6.582,6.582,0,0,1-2.593-3.4h2.142l-.143-.179A16.678,16.678,0,0,1,125,264a16.678,16.678,0,0,1-3.428,7.677l-.143.179h2.142a6.582,6.582,0,0,1-2.593,3.4l-.263.176h2.142a9.567,9.567,0,0,1-2.311,3.739l-.546.546Z" transform="translate(-102.002 -225.861)" fill="#6b9777"/>
      <path id="Trazado_1246838" data-name="Trazado 1246838" d="M51.562,183.711a3.573,3.573,0,0,0-1.834-3.119,3.571,3.571,0,0,0-1.79-6.1,5.714,5.714,0,0,0-8.52-5.721,5.711,5.711,0,0,0-8.514,5.722,3.569,3.569,0,0,0-1.79,6.1,3.569,3.569,0,0,0-.4,5.975,3.6,3.6,0,0,0-.887.968.71.71,0,0,0-.147-.134l-.263-.176a5.9,5.9,0,0,1-1.9-2.086h1.056a.714.714,0,0,0,.558-1.16l-.143-.179a16,16,0,0,1-3.281-7.348.714.714,0,0,0-1.409,0,16,16,0,0,1-3.281,7.348l-.143.179a.714.714,0,0,0,.558,1.16h1.056a5.9,5.9,0,0,1-1.77,1.992,5.9,5.9,0,0,1-1.77-1.992H18a.714.714,0,0,0,.558-1.16l-.143-.179a16.01,16.01,0,0,1-3.281-7.348.714.714,0,0,0-1.409,0,15.948,15.948,0,0,1-1.17,3.885,15.993,15.993,0,0,1-2.111,3.464l-.143.179a.714.714,0,0,0,.558,1.16h1.058a5.87,5.87,0,0,1-1.905,2.087l-.263.176a.714.714,0,0,0,.4,1.308h1.091a8.813,8.813,0,0,1-1.764,2.52l-.545.545a.714.714,0,0,0,.5,1.219h4.285v2.774l-5-.011a.714.714,0,1,0,0,1.428l42.134.094h0a.714.714,0,1,0,0-1.428l-7.857-.018v-2.839h5a3.571,3.571,0,0,0,2.525-6.1,3.627,3.627,0,0,0-.383-.333,3.568,3.568,0,0,0,1.429-2.855Zm-24.281,5a.707.707,0,0,0,.074-.006,3.552,3.552,0,0,0,.2,2.1,8.922,8.922,0,0,1-1.367-2.094Zm-5.848-1.132a.714.714,0,0,0-.579-.3h-.161a7.323,7.323,0,0,0,1.553-2.631.714.714,0,0,0-.678-.94h-.712A17.449,17.449,0,0,0,23,179.468a17.449,17.449,0,0,0,2.14,4.243h-.712a.714.714,0,0,0-.677.94,7.323,7.323,0,0,0,1.553,2.631h-.161a.714.714,0,0,0-.677.94,10.341,10.341,0,0,0,1.868,3.345H19.664a10.341,10.341,0,0,0,1.868-3.345A.714.714,0,0,0,21.434,187.578Zm-2.722,1.132H19.8a8.927,8.927,0,0,1-1.09,1.761,8.936,8.936,0,0,1-1.09-1.761Zm-7.617,2.857a10.252,10.252,0,0,0,1.867-3.345.714.714,0,0,0-.677-.94h-.159q.225-.244.427-.509a7.272,7.272,0,0,0,1.123-2.122.714.714,0,0,0-.678-.94h-.712a17.4,17.4,0,0,0,1.569-2.792q.318-.713.571-1.45a17.46,17.46,0,0,0,2.141,4.242h-.712a.714.714,0,0,0-.678.94,7.32,7.32,0,0,0,1.553,2.631H16.57a.714.714,0,0,0-.678.94,10.342,10.342,0,0,0,1.842,3.313l-.032.032Zm11.188,4.221-7.141-.016v-2.777h7.141Zm13.569.03-12.14-.027v-2.8H28a.709.709,0,0,0,.713-.717,3.552,3.552,0,0,0,2.144.717h5Zm5.713.013-4.285-.01v-2.826h4.285Zm.714-4.264h-5V186.91l3.3-2.642a.714.714,0,1,0-.893-1.115l-2.41,1.928V173a.714.714,0,0,0-1.428,0v6.37l-.567-.454-.008-.006-1.835-1.468a.714.714,0,1,0-.893,1.115l1.823,1.458.006,0,1.474,1.179v10.369h-5a2.142,2.142,0,0,1,0-4.285.714.714,0,1,0,0-1.428,2.142,2.142,0,1,1,0-4.285h.714a.714.714,0,0,0,0-1.428,2.142,2.142,0,0,1,0-4.285h.208a.714.714,0,0,0,.684-.918,4.285,4.285,0,1,1,8.213,0,.714.714,0,0,0,.685.918h.208a2.142,2.142,0,1,1,0,4.285.714.714,0,0,0,0,1.428h.714a2.142,2.142,0,1,1,0,4.285.714.714,0,1,0,0,1.428,2.142,2.142,0,0,1,0,4.285Zm5.713-5.713a.714.714,0,1,0,0,1.428,2.142,2.142,0,1,1,0,4.285H45.133a3.565,3.565,0,0,0-.714-5,3.569,3.569,0,0,0-.4-5.976,3.569,3.569,0,0,0-1.79-6.1,5.7,5.7,0,0,0-1.559-4.747,4.286,4.286,0,0,1,5.718,5.2.714.714,0,0,0,.685.918h.208a2.142,2.142,0,1,1,0,4.285.714.714,0,0,0,0,1.428h.714a2.142,2.142,0,1,1,0,4.285Z" transform="translate(0 -138.431)"/>
      <path id="Trazado_1246839" data-name="Trazado 1246839" d="M18.857,63.855H24.57a2.858,2.858,0,0,0,2.473-1.428h1.812V61H27.426a2.86,2.86,0,0,0-2.857-2.857h-.09a2.857,2.857,0,0,0-5.532,0h-.09a2.857,2.857,0,0,0,0,5.713Zm0-4.285h.714a.714.714,0,0,0,.714-.714,1.428,1.428,0,0,1,2.857,0,.714.714,0,0,0,.714.714h.714a1.428,1.428,0,0,1,0,2.857H18.857a1.428,1.428,0,0,1,0-2.857Z" transform="translate(-7.286 -36.428)"/>
      <path id="Trazado_1246840" data-name="Trazado 1246840" d="M318.283,20.285h-.09a22.445,22.445,0,0,0-5.623-2.142h-.089a2.857,2.857,0,0,0-5.533,0h-.091a2.857,2.857,0,0,0,0,5.713H309.8A2.862,2.862,0,0,0,312.57,26h5.713a2.857,2.857,0,0,0,0-5.713ZM309.8,22.428h-2.947a1.428,1.428,0,1,1,0-2.857h.714a.714.714,0,0,0,.714-.714,1.428,1.428,0,1,1,2.857,0,.714.714,0,0,0,.714.714h.714a1.429,1.429,0,0,1,.357.046,2.835,2.835,0,0,0-.267.668h-.09A2.862,2.862,0,0,0,309.8,22.428Zm8.479,2.142H312.57a1.428,1.428,0,1,1,0-2.857h.714A.714.714,0,0,0,314,21a1.428,1.428,0,1,1,2.857,0,.714.714,0,0,0,.714.714h.714a1.428,1.428,0,1,1,0,2.857Z" transform="translate(-269.577)"/>
      <path id="Trazado_1246841" data-name="Trazado 1246841" d="M208,40h1.428v2.142H208Z" transform="translate(-182.147 -21.857)"/>
      <path id="Trazado_1246842" data-name="Trazado 1246842" d="M0,0H1.428V2.142H0Z" transform="translate(21.011 20.74) rotate(-45)"/>
      <path id="Trazado_1246843" data-name="Trazado 1246843" d="M0,0H2.142V1.428H0Z" transform="translate(21.01 29.829) rotate(-45)"/>
      <path id="Trazado_1246844" data-name="Trazado 1246844" d="M208,176h1.428v2.142H208Z" transform="translate(-182.147 -145.717)"/>
      <path id="Trazado_1246845" data-name="Trazado 1246845" d="M0,0H1.428V2.142H0Z" transform="translate(29.593 29.325) rotate(-45)"/>
      <path id="Trazado_1246846" data-name="Trazado 1246846" d="M272,112h2.142v1.428H272Z" transform="translate(-240.434 -87.43)"/>
      <path id="Trazado_1246847" data-name="Trazado 1246847" d="M0,0H2.142V1.428H0Z" transform="translate(29.594 21.246) rotate(-45)"/>
      <path id="Trazado_1246848" data-name="Trazado 1246848" d="M176.838,84.677A3.838,3.838,0,1,0,173,80.838,3.838,3.838,0,0,0,176.838,84.677Zm0-6.249a2.41,2.41,0,1,1-2.41,2.41A2.41,2.41,0,0,1,176.838,78.428Z" transform="translate(-150.271 -55.554)"/>
    </g>
  </g>
</svg>
