<svg xmlns="http://www.w3.org/2000/svg" width="72" height="72" viewBox="0 0 72 72">
  <g id="Grupo_1193729" data-name="Grupo 1193729" transform="translate(-922 -3839.479)">
    <g id="Grupo_1193722" data-name="Grupo 1193722" transform="translate(503 2718.479)">
      <path id="Trazado_824488" data-name="Trazado 824488" d="M36,0A36,36,0,1,1,0,36,36,36,0,0,1,36,0Z" transform="translate(419 1121)" fill="#f6b32f"/>
    </g>
    <g id="pines" transform="translate(934.986 3838.254)">
      <g id="Grupo_1193727" data-name="Grupo 1193727" transform="translate(8.017 21.364)">
        <path id="Trazado_1246849" data-name="Trazado 1246849" d="M258.928,94.867l-7.714,23.118h15.427Z" transform="translate(-236.648 -94.867)" fill="#1e3d2e"/>
        <path id="Trazado_1246850" data-name="Trazado 1246850" d="M96.9,94.867l-7.713,23.118h15.427Z" transform="translate(-89.185 -94.867)" fill="#1e3d2e"/>
      </g>
      <g id="Grupo_1193728" data-name="Grupo 1193728" transform="translate(0.734 25.116)">
        <path id="Trazado_1246851" data-name="Trazado 1246851" d="M339.943,136.6l-7.713,23.117h15.427Z" transform="translate(-303.097 -136.602)" fill="#4f7034"/>
        <path id="Trazado_1246852" data-name="Trazado 1246852" d="M15.884,136.6,8.17,159.719H23.6Z" transform="translate(-8.17 -136.602)" fill="#4f7034"/>
      </g>
      <path id="Trazado_1246853" data-name="Trazado 1246853" d="M141.956,18.188,130.691,51.951h22.531Z" transform="translate(-118.942 -3.718)" fill="#7fa339"/>
      <path id="Trazado_1246854" data-name="Trazado 1246854" d="M329.579,422.343a.734.734,0,0,0-.734.734V428.4a.734.734,0,1,0,1.469,0v-5.323A.734.734,0,0,0,329.579,422.343Z" transform="translate(-299.282 -371.539)"/>
      <path id="Trazado_1246855" data-name="Trazado 1246855" d="M167.549,422.343a.734.734,0,0,0-.734.734V428.4a.734.734,0,1,0,1.469,0v-5.323A.735.735,0,0,0,167.549,422.343Z" transform="translate(-151.819 -371.539)"/>
      <path id="Trazado_1246856" data-name="Trazado 1246856" d="M45.991,48.368,38.277,25.25a.734.734,0,0,0-1.393,0L34.565,32.2,30.994,21.5a.734.734,0,0,0-1.393,0l-1.795,5.379L23.711,14.605a.734.734,0,0,0-1.393,0L18.222,26.878,16.428,21.5a.734.734,0,0,0-1.393,0L11.463,32.2,9.144,25.25a.734.734,0,0,0-1.393,0L.037,48.368a.734.734,0,0,0,.7.967H7.713v7.527a.734.734,0,1,0,1.469,0V49.335h13.1v7.527a.734.734,0,1,0,1.469,0V49.335h13.1v7.527a.734.734,0,1,0,1.469,0V49.335h6.979a.735.735,0,0,0,.7-.967ZM30.3,24.052l3.493,10.47-1.717,5.147L28.58,29.2Zm-14.567,0L17.448,29.2,13.955,39.668l-1.717-5.147ZM8.448,42.557a.734.734,0,0,0-.734.734v4.574H1.754L8.448,27.8l4.733,14.185L11.22,47.866H9.182V43.291A.735.735,0,0,0,8.448,42.557Zm15.3,1.282,3.776-4.05a.735.735,0,0,0-1.074-1l-2.7,2.9V35.942a.734.734,0,1,0-1.469,0v5.7l-2.706-2.855a.735.735,0,0,0-1.066,1.011l3.772,3.979v4.092H12.768L23.014,17.158,33.26,47.866H23.749V43.839Zm14.567,4.026V43.291a.734.734,0,1,0-1.469,0v4.574H34.809l-1.961-5.877L37.581,27.8l6.694,20.062Z" transform="translate(0)"/>
    </g>
  </g>
</svg>
