<svg xmlns="http://www.w3.org/2000/svg" xmlns:xlink="http://www.w3.org/1999/xlink" width="72" height="72" viewBox="0 0 72 72">
  <defs>
    <clipPath id="clip-path">
      <path id="path4029" d="M0-682.665H50.746v50.746H0Z" transform="translate(0 682.665)"/>
    </clipPath>
  </defs>
  <g id="Grupo_1193730" data-name="Grupo 1193730" transform="translate(-1237 -3839.479)">
    <g id="Grupo_1193723" data-name="Grupo 1193723" transform="translate(818 2718.479)">
      <path id="Trazado_824488" data-name="Trazado 824488" d="M36,0A36,36,0,1,1,0,36,36,36,0,0,1,36,0Z" transform="translate(419 1121)" fill="#f6b32f"/>
    </g>
    <g id="g4023" transform="translate(1247.627 4531.292)">
      <g id="g4025" transform="translate(0 -682.665)">
        <g id="g4027" clip-path="url(#clip-path)">
          <g id="g4033" transform="translate(0.743 18.899)">
            <path id="path4035" d="M-613.406-111.55c-4.788-6.747-12.548-9.263-19.064-6.181-2.274,1.076-4.473,2.788-6.882,2.782-3.364-.008-6.183-3.322-9.371-4.781-5.063-2.318-11.167.705-13.942,6.905V-96.4h49.26Z" transform="translate(662.665 120.508)" fill="#68b181"/>
          </g>
          <g id="g4037" transform="translate(0 18.161)">
            <path id="path4039" d="M-622.664-120a.742.742,0,0,1-.607-.313c-4.614-6.5-11.9-8.889-18.14-5.939-.593.28-1.2.617-1.789.943-1.7.939-3.453,1.911-5.4,1.911h-.014c-2.372-.006-4.427-1.442-6.414-2.832a22.007,22.007,0,0,0-3.264-2.017,8.029,8.029,0,0,0-6.3-.14,12.393,12.393,0,0,0-6.658,6.674.743.743,0,0,1-.982.375.743.743,0,0,1-.375-.982,13.882,13.882,0,0,1,7.491-7.457,9.611,9.611,0,0,1,7.439.18,23.08,23.08,0,0,1,3.5,2.15c1.882,1.316,3.66,2.559,5.566,2.563,1.565,0,3.082-.836,4.689-1.725.609-.337,1.238-.685,1.874-.986,6.8-3.217,15.021-.576,19.988,6.423a.743.743,0,0,1-.176,1.036A.74.74,0,0,1-622.664-120Z" transform="translate(672.667 130.439)"/>
          </g>
          <path id="path4041" d="M566.341-240.876h2.846v-7.075h-2.846Z" transform="translate(-524.242 280.265)" fill="#8c818f"/>
          <path id="path4041_-_Contorno" data-name="path4041 - Contorno" d="M559.931-249.389h-2.846a.743.743,0,0,1-.743-.743v-7.075a.743.743,0,0,1,.743-.743h2.846a.743.743,0,0,1,.743.743v7.075A.743.743,0,0,1,559.931-249.389Zm-2.1-1.487h1.36v-5.588h-1.36Z" transform="translate(-514.985 289.521)"/>
          <g id="g4043" transform="translate(38.849 16.324)">
            <path id="path4045" d="M-110.963-199.12a.481.481,0,0,0,.438-.527c-.25-8.692-2.247-15.464-4.674-15.464s-4.424,6.772-4.674,15.464a.481.481,0,0,0,.438.527Z" transform="translate(119.874 215.11)" fill="#bce097"/>
          </g>
          <g id="g4047" transform="translate(42.18 16.324)">
            <path id="path4049" d="M-16.735,0a1.863,1.863,0,0,0-1.344.719c1.787,1.96,3.128,7.726,3.33,14.744a.481.481,0,0,1-.438.527H-12.5a.481.481,0,0,0,.438-.527C-12.31,6.772-14.308,0-16.735,0" transform="translate(18.079)" fill="#9cd169"/>
          </g>
          <g id="g4051" transform="translate(38.105 15.581)">
            <path id="path4053" d="M-120.219-207.633h-8.473a1.142,1.142,0,0,1-.823-.353,1.3,1.3,0,0,1-.358-.938c.224-7.8,2.015-16.186,5.417-16.186s5.193,8.39,5.417,16.185a1.3,1.3,0,0,1-.358.938A1.142,1.142,0,0,1-120.219-207.633Zm-8.16-1.487h7.848c-.3-9.342-2.5-14.5-3.924-14.5S-128.077-218.462-128.38-209.12Z" transform="translate(129.874 225.11)"/>
          </g>
          <path id="path4055" d="M413.035-263.784h3.278v-8.623h-3.278Z" transform="translate(-382.332 302.904)" fill="#ffeed2"/>
          <path id="path4055_-_Contorno" data-name="path4055 - Contorno" d="M407.056-272.3h-3.278a.743.743,0,0,1-.743-.743v-8.623a.743.743,0,0,1,.743-.743h3.278a.743.743,0,0,1,.743.743v8.623A.743.743,0,0,1,407.056-272.3Zm-2.535-1.487h1.791v-7.136h-1.791Z" transform="translate(-373.075 312.161)"/>
          <g id="g4057" transform="translate(27.762 8.116)">
            <path id="path4059" d="M0-266.887v-16.852a4.58,4.58,0,0,1,4.58-4.58,4.58,4.58,0,0,1,4.58,4.58v16.852a.949.949,0,0,1-.949.949H.949A.949.949,0,0,1,0-266.887" transform="translate(0 288.319)" fill="#acd980"/>
          </g>
          <g id="g4061" transform="translate(31.04 8.116)">
            <path id="path4063" d="M-16.213,0a4.579,4.579,0,0,0-1.3.189A4.581,4.581,0,0,1-14.237,4.58V21.432a.949.949,0,0,1-.949.949h2.6a.949.949,0,0,0,.949-.949V4.58A4.58,4.58,0,0,0-16.213,0" transform="translate(17.515)" fill="#8cc951"/>
          </g>
          <g id="g4065" transform="translate(27.019 7.372)">
            <path id="path4067" d="M-50.192,12.606h-7.263a1.694,1.694,0,0,1-1.692-1.692V-5.938a5.3,5.3,0,0,1,.871-2.919.743.743,0,0,1,1.029-.213.743.743,0,0,1,.213,1.029,3.819,3.819,0,0,0-.627,2.1V10.914a.206.206,0,0,0,.205.205h7.263a.206.206,0,0,0,.205-.205V-5.938a3.841,3.841,0,0,0-3.837-3.837A3.871,3.871,0,0,0-54.6-9.7a.743.743,0,0,1-.878-.579.743.743,0,0,1,.579-.878,5.361,5.361,0,0,1,1.076-.109A5.329,5.329,0,0,1-48.5-5.938V10.914A1.694,1.694,0,0,1-50.192,12.606Z" transform="translate(59.147 11.261)"/>
          </g>
          <g id="g4069" transform="translate(29.735 13.672)">
            <path id="path4071" d="M-9.259-15.214a.74.74,0,0,1-.372-.1A.743.743,0,0,1-9.9-16.33a1.826,1.826,0,0,1,1.575-.909,1.807,1.807,0,0,1,1.287.533,1.827,1.827,0,0,1,.289.376.743.743,0,0,1-.27,1.016.743.743,0,0,1-1.016-.27.341.341,0,0,0-.054-.07.33.33,0,0,0-.235-.1.331.331,0,0,0-.289.167A.743.743,0,0,1-9.259-15.214Z" transform="translate(10.002 17.239)"/>
          </g>
          <g id="g4073" transform="translate(32.09 21.883)">
            <path id="path4075" d="M-9.259-15.214a.74.74,0,0,1-.372-.1A.743.743,0,0,1-9.9-16.33a1.826,1.826,0,0,1,1.575-.909,1.807,1.807,0,0,1,1.287.533,1.827,1.827,0,0,1,.289.376.743.743,0,0,1-.27,1.016.743.743,0,0,1-1.016-.27.341.341,0,0,0-.054-.07.33.33,0,0,0-.235-.1.331.331,0,0,0-.289.167A.743.743,0,0,1-9.259-15.214Z" transform="translate(10.002 17.239)"/>
          </g>
          <g id="g4077" transform="translate(0 42.267)">
            <path id="path4079" d="M40-8.513H-9.257A.743.743,0,0,1-10-9.257.743.743,0,0,1-9.257-10H40a.743.743,0,0,1,.743.743A.743.743,0,0,1,40-8.513Z" transform="translate(10 10)"/>
          </g>
          <g id="g4081" transform="translate(19.355 13.45)">
            <path id="path4083" d="M-148.834-212.659a.458.458,0,0,1-.053-.706c.774-.735,1.03-1.218.894-1.995a2.626,2.626,0,0,0-1.821-2.082.532.532,0,0,1-.346-.712c.658-1.655.188-3.584-.575-4.017a1.139,1.139,0,0,1-.576-1.02c.035-1.188-.406-2.1-.873-2.256a1.127,1.127,0,0,1-.732-.911c-.316-2.038-.851-3.378-1.457-3.378s-1.141,1.34-1.457,3.378a1.127,1.127,0,0,1-.732.911c-.467.154-.908,1.068-.873,2.256a1.139,1.139,0,0,1-.576,1.02c-.762.433-1.232,2.363-.575,4.017a.532.532,0,0,1-.346.712,2.626,2.626,0,0,0-1.821,2.082c-.136.777.12,1.26.894,1.995a.458.458,0,0,1-.053.706,1.371,1.371,0,0,0-.686,1.053c0,1.275,2.786,2.308,6.224,2.308s6.224-1.033,6.224-2.308a1.371,1.371,0,0,0-.686-1.053" transform="translate(160.787 229.737)" fill="#acd980"/>
          </g>
          <g id="g4085" transform="translate(24.681 13.45)">
            <path id="path4087" d="M-82.515-212.659a.458.458,0,0,1-.053-.706c.774-.735,1.03-1.218.894-1.995a2.626,2.626,0,0,0-1.821-2.082.532.532,0,0,1-.346-.712c.658-1.655.188-3.584-.575-4.017a1.139,1.139,0,0,1-.576-1.02c.035-1.188-.406-2.1-.873-2.256a1.127,1.127,0,0,1-.732-.911c-.316-2.038-.851-3.378-1.457-3.378-.411,0-.789.616-1.088,1.647a14.01,14.01,0,0,1,.369,1.731,1.127,1.127,0,0,0,.732.911c.467.154.908,1.068.873,2.256a1.138,1.138,0,0,0,.576,1.02c.762.433,1.232,2.363.574,4.017a.532.532,0,0,0,.346.712,2.626,2.626,0,0,1,1.821,2.082c.136.777-.12,1.26-.894,1.995a.458.458,0,0,0,.053.706,1.371,1.371,0,0,1,.686,1.053c0,1.137-2.217,2.081-5.135,2.272.354.023.717.036,1.088.036,3.437,0,6.224-1.033,6.224-2.308a1.371,1.371,0,0,0-.686-1.053" transform="translate(89.141 229.737)" fill="#8cc951"/>
          </g>
          <g id="g4089" transform="translate(25.026 19.332)">
            <path id="path4091" d="M-9.257-231.193a.743.743,0,0,1-.743-.743v-17.882a.743.743,0,0,1,.743-.743.743.743,0,0,1,.743.743v17.882A.743.743,0,0,1-9.257-231.193Z" transform="translate(10 250.562)"/>
          </g>
          <g id="g4093" transform="translate(18.612 12.707)">
            <path id="path4095" d="M-163.624-217.812c-3.462,0-6.967-1.048-6.967-3.051a1.914,1.914,0,0,1,.736-1.45,2.575,2.575,0,0,1-.881-2.431,3.407,3.407,0,0,1,2.131-2.6c-.628-1.824-.181-4.075.975-4.731a.4.4,0,0,0,.2-.352c-.044-1.473.525-2.7,1.382-2.984a.392.392,0,0,0,.231-.32c.418-2.7,1.135-4.007,2.192-4.007s1.773,1.311,2.192,4.007a.392.392,0,0,0,.231.32c.857.283,1.426,1.51,1.382,2.984a.4.4,0,0,0,.2.352c1.156.656,1.6,2.907.975,4.731a3.406,3.406,0,0,1,2.131,2.6,2.574,2.574,0,0,1-.88,2.431,1.913,1.913,0,0,1,.736,1.45C-156.657-218.86-160.162-217.812-163.624-217.812Zm0-20.284a7.98,7.98,0,0,0-.723,2.594,1.858,1.858,0,0,1-1.233,1.5,2.375,2.375,0,0,0-.363,1.528,1.875,1.875,0,0,1-.952,1.689,3.181,3.181,0,0,0-.251,3.1,1.284,1.284,0,0,1-.04,1.039,1.276,1.276,0,0,1-.792.662,1.887,1.887,0,0,0-1.294,1.5c-.072.41-.03.66.674,1.328a1.194,1.194,0,0,1,.37.949,1.206,1.206,0,0,1-.5.9c-.278.2-.377.368-.377.45,0,.454,1.92,1.564,5.48,1.564s5.48-1.11,5.48-1.564c0-.082-.1-.249-.377-.45a1.206,1.206,0,0,1-.5-.9,1.194,1.194,0,0,1,.37-.949c.7-.668.745-.918.674-1.328a1.887,1.887,0,0,0-1.294-1.5,1.276,1.276,0,0,1-.792-.662,1.284,1.284,0,0,1-.04-1.039,3.181,3.181,0,0,0-.251-3.1,1.875,1.875,0,0,1-.952-1.688,2.172,2.172,0,0,0-.4-1.545,1.833,1.833,0,0,1-1.2-1.487A7.984,7.984,0,0,0-163.624-238.1Z" transform="translate(170.781 239.737)"/>
          </g>
          <g id="g4097" transform="translate(25.026 29.158)">
            <path id="path4099" d="M-9.257-35.172a.741.741,0,0,1-.526-.218.743.743,0,0,1,0-1.051l2.141-2.141a.743.743,0,0,1,1.051,0,.743.743,0,0,1,0,1.051L-8.731-35.39A.741.741,0,0,1-9.257-35.172Z" transform="translate(10 38.8)"/>
          </g>
          <g id="g4101" transform="translate(25.026 22.538)">
            <path id="path4103" d="M-9.257-29.241a.741.741,0,0,1-.526-.218.743.743,0,0,1,0-1.051l1.665-1.665a.743.743,0,0,1,1.051,0,.743.743,0,0,1,0,1.051l-1.665,1.665A.741.741,0,0,1-9.257-29.241Z" transform="translate(10 32.392)"/>
          </g>
          <g id="g4105" transform="translate(23.368 25.722)">
            <path id="path4107" d="M-29.905-29.162a.741.741,0,0,1-.526-.218l-1.658-1.658a.743.743,0,0,1,0-1.051.743.743,0,0,1,1.051,0l1.658,1.658a.743.743,0,0,1,0,1.051A.741.741,0,0,1-29.905-29.162Z" transform="translate(32.307 32.307)"/>
          </g>
          <g id="g4109" transform="translate(9.473 35.308)">
            <path id="path4111" d="M-504.695-95.912v-6.8c-7.993-.928-16.113-1.442-24.042-.008a40.083,40.083,0,0,0-16.488,6.81Z" transform="translate(545.224 103.614)" fill="#cf9875"/>
          </g>
          <g id="g4113" transform="translate(37.368 35.312)">
            <path id="path4115" d="M-146.505-95.864h.87v-6.8a119.113,119.113,0,0,0-12.635-.9c6.291,1.024,13.734,3.764,11.765,7.7" transform="translate(158.27 103.562)" fill="#c7865b"/>
          </g>
          <g id="g4117" transform="translate(8.73 34.568)">
            <path id="path4119" d="M-513.952-12.881h-40.529a.743.743,0,0,1-.707-.513.743.743,0,0,1,.269-.831,40.951,40.951,0,0,1,16.793-6.941c8.351-1.511,16.95-.847,24.26,0a.743.743,0,0,1,.653.824.743.743,0,0,1-.824.653c-7.2-.836-15.664-1.491-23.824-.015a40.5,40.5,0,0,0-14.19,5.335h38.1a.743.743,0,0,1,.743.743A.743.743,0,0,1-513.952-12.881Z" transform="translate(555.225 22.067)"/>
          </g>
          <path id="path4121" d="M96.469-260.924H99.4V-271.47H96.469Z" transform="translate(-89.298 302.036)" fill="#cf9875"/>
          <path id="path4121_-_Contorno" data-name="path4121 - Contorno" d="M90.14-269.437H87.212a.743.743,0,0,1-.743-.743v-10.546a.743.743,0,0,1,.743-.743H90.14a.743.743,0,0,1,.743.743v10.546A.743.743,0,0,1,90.14-269.437Zm-2.184-1.487H89.4v-9.059H87.956Z" transform="translate(-80.041 311.293)"/>
          <g id="g4123" transform="translate(2.809 7.736)">
            <path id="path4125" d="M-133.458-284.293h-9.782a.9.9,0,0,1-.935-.878c.232-9.008,2.169-16.849,5.009-21.511a.978.978,0,0,1,1.634,0c2.84,4.662,4.777,12.5,5.009,21.511a.9.9,0,0,1-.935.878" transform="translate(144.175 307.123)" fill="#acd980"/>
          </g>
          <g id="g4127" transform="translate(7.231 7.736)">
            <path id="path4129" d="M-27.664-5.485a.978.978,0,0,0-1.634,0c-.2.329-.4.676-.587,1.036,2.517,4.741,4.206,12.1,4.421,20.475a.9.9,0,0,1-.935.878h2.809a.9.9,0,0,0,.935-.878c-.232-9.008-2.169-16.849-5.009-21.511" transform="translate(29.885 5.925)" fill="#8cc951"/>
          </g>
          <g id="g4131" transform="translate(2.065 6.993)">
            <path id="path4133" d="M-154.084-251.866h-9.782a1.722,1.722,0,0,1-1.229-.511,1.552,1.552,0,0,1-.449-1.13c.23-8.944,2.1-16.919,5.117-21.879a1.679,1.679,0,0,1,1.452-.8,1.679,1.679,0,0,1,1.452.8c2.325,3.817,4.008,9.575,4.737,16.212a.743.743,0,0,1-.658.82.743.743,0,0,1-.82-.658c-.706-6.425-2.315-11.965-4.529-15.6a.217.217,0,0,0-.182-.084.217.217,0,0,0-.182.084c-2.848,4.675-4.68,12.58-4.9,21.144a.207.207,0,0,0,.192.116h9.782a.225.225,0,0,0,.165-.062c.008-.776-.021-1.49-.062-2.2a.743.743,0,0,1,.7-.785.743.743,0,0,1,.785.7q.062,1.081.09,2.188a1.552,1.552,0,0,1-.448,1.13A1.723,1.723,0,0,1-154.084-251.866Z" transform="translate(165.545 276.183)"/>
          </g>
          <g id="g4135" transform="translate(2.202 34.471)">
            <path id="path4137" d="M-34.008-106.336h14.667c1.865-.837,3.047-2.353,2.656-3.439-.357-.991-1.9-1.288-3.616-.766a.2.2,0,0,1-.24-.267,2.527,2.527,0,0,0-.011-2.49c-.758-1.05-2.591-.889-4.19.326a.2.2,0,0,1-.309-.1c-.352-1.09-.948-1.806-1.624-1.806s-1.272.717-1.624,1.806a.2.2,0,0,1-.308.1c-1.6-1.216-3.432-1.376-4.19-.326a2.527,2.527,0,0,0-.011,2.49.2.2,0,0,1-.24.267c-1.711-.522-3.259-.225-3.616.766-.391,1.085.791,2.6,2.656,3.439" transform="translate(36.739 114.876)" fill="#acd980"/>
          </g>
          <g id="g4139" transform="translate(1.46 33.727)">
            <path id="path4141" d="M-28.58-114.85H-43.247a.743.743,0,0,1-.3-.065c-2.27-1.019-3.582-2.9-3.051-4.369a2.671,2.671,0,0,1,2.726-1.511,5.635,5.635,0,0,1,.839.065,2.84,2.84,0,0,1,.4-2.259,2.55,2.55,0,0,1,2.144-1,4.934,4.934,0,0,1,2.51.773,2.416,2.416,0,0,1,2.071-1.655,2.415,2.415,0,0,1,2.071,1.655,4.934,4.934,0,0,1,2.51-.773,2.549,2.549,0,0,1,2.144,1,2.84,2.84,0,0,1,.4,2.26,5.637,5.637,0,0,1,.839-.065,2.671,2.671,0,0,1,2.726,1.511c.531,1.472-.781,3.35-3.051,4.369A.743.743,0,0,1-28.58-114.85Zm-14.5-1.487h14.34c1.59-.761,2.309-1.922,2.121-2.443-.116-.321-.637-.529-1.327-.529a4.793,4.793,0,0,0-1.372.221,1.2,1.2,0,0,1-.276.041.939.939,0,0,1-.789-.428.935.935,0,0,1-.072-.89,1.849,1.849,0,0,0,.067-1.755,1.125,1.125,0,0,0-.939-.388,3.851,3.851,0,0,0-2.2.871.932.932,0,0,1-.569.192.94.94,0,0,1-.9-.653c-.3-.941-.724-1.292-.917-1.292s-.612.351-.917,1.291a.94.94,0,0,1-.9.653.933.933,0,0,1-.569-.192,3.851,3.851,0,0,0-2.2-.871,1.125,1.125,0,0,0-.939.388,1.849,1.849,0,0,0,.066,1.755.935.935,0,0,1-.072.89.939.939,0,0,1-.789.428,1.2,1.2,0,0,1-.277-.041,4.793,4.793,0,0,0-1.372-.221c-.691,0-1.212.207-1.327.529C-45.392-118.258-44.673-117.1-43.083-116.336Z" transform="translate(46.72 124.876)"/>
          </g>
        </g>
      </g>
    </g>
  </g>
</svg>
